<?xml version="1.0" encoding="utf-8"?>
<!-- Generator: Adobe Illustrator 22.0.1, SVG Export Plug-In . SVG Version: 6.00 Build 0)  -->
<svg version="1.1" id="Layer_1" xmlns="http://www.w3.org/2000/svg" xmlns:xlink="http://www.w3.org/1999/xlink" x="0px" y="0px"
	 viewBox="0 0 300 200" style="enable-background:new 0 0 300 200;" xml:space="preserve">
<style type="text/css">
	.st0{fill:url(#SVGID_1_);}
	.st1{fill:url(#SVGID_2_);}
	.st2{fill:none;}
	.st3{fill:#E2D7D5;}
	.st4{fill:#EDDADA;}
	.st5{fill:#EBE1E1;}
	.st6{fill:#77253D;}
	.st7{fill:#DBDBDB;}
	.st8{fill:url(#SVGID_3_);}
	.st9{fill:url(#SVGID_4_);}
	.st10{fill:url(#SVGID_5_);}
	.st11{fill:url(#SVGID_6_);}
</style>
<linearGradient id="SVGID_1_" gradientUnits="userSpaceOnUse" x1="124.3632" y1="134.5053" x2="285.5911" y2="134.5053">
	<stop  offset="0.2718" style="stop-color:#C2DB7A"/>
	<stop  offset="0.3718" style="stop-color:#BFD978"/>
	<stop  offset="0.6786" style="stop-color:#99C35A"/>
	<stop  offset="0.8769" style="stop-color:#7EB445"/>
</linearGradient>
<path class="st0" d="M178.6,93.6c0,0,115.9,22.9,106.4,41.7s-126.7,42.4-154.5,40S178.6,93.6,178.6,93.6z"/>
<linearGradient id="SVGID_2_" gradientUnits="userSpaceOnUse" x1="122.7296" y1="17.0648" x2="48.4001" y2="154.0555">
	<stop  offset="0.2718" style="stop-color:#C2DB7A"/>
	<stop  offset="0.3718" style="stop-color:#BFD978"/>
	<stop  offset="0.6786" style="stop-color:#99C35A"/>
	<stop  offset="0.8769" style="stop-color:#7EB445"/>
</linearGradient>
<path class="st1" d="M115.5,26.3c0,0-116.7,18.4-108,37.5s125,47.3,152.9,46C188.3,108.6,115.5,26.3,115.5,26.3z"/>
<g>
	<path class="st2" d="M110.2,103.8C110.2,103.8,110.2,103.9,110.2,103.8C110.2,103.9,110.2,103.9,110.2,103.8
		C110.2,103.8,110.2,103.8,110.2,103.8z"/>
	<path class="st2" d="M125.1,124.2c0,0,0-0.1,0-0.1c0-0.2-0.1-0.4-0.2-0.6c0-0.1,0-0.1,0-0.2c0-0.2-0.1-0.3-0.2-0.5
		c0-0.1,0-0.1-0.1-0.2c0.2,0.7,0.4,1.4,0.6,2C125.1,124.5,125.1,124.3,125.1,124.2z"/>
	<polygon class="st2" points="108.1,102 108.1,102 108.1,102 	"/>
	<path class="st3" d="M106.7,128.1c4.2-1.5,9.1-3.7,12.6-6.7c-2.1-3.3-7.6-10.3-15.2-10.7c-2.2,1-4.4,2.2-6.5,3.3
		C98.1,115.1,100.4,123.9,106.7,128.1z"/>
	<path class="st4" d="M101.4,129.7c1.5-0.4,3.3-1,5.3-1.6c-6.3-4.2-8.7-13-9-14.2c-0.9,0.5-1.8,1-2.6,1.4c-2.1,1.2-3.7,2.2-4.7,2.7
		c0,0,0,0,0,0c0,0,0,0,0,0c0,0.1,0,0.2,0.1,0.2c0,0.1,0.1,0.3,0.1,0.4c0,0.1,0,0.1,0.1,0.2c0.1,0.3,0.1,0.5,0.2,0.8
		c0.1,0.3,0.2,0.6,0.3,0.9c0,0,0,0.1,0,0.1c0.1,0.3,0.2,0.6,0.3,1c0,0.1,0,0.1,0.1,0.2c0.1,0.3,0.2,0.5,0.3,0.8c0,0,0,0,0,0
		c0.2,0.4,0.3,0.8,0.5,1.2c0,0,0,0,0,0c0.2,0.4,0.4,0.8,0.6,1.2c0,0,0,0,0,0c0.1,0.2,0.2,0.5,0.4,0.7c0,0.1,0.1,0.1,0.1,0.2
		c0.1,0.2,0.2,0.3,0.3,0.5c0,0.1,0.1,0.1,0.1,0.2c0.1,0.2,0.3,0.4,0.4,0.6c0,0,0,0.1,0.1,0.1c0.2,0.2,0.3,0.5,0.5,0.7c0,0,0,0,0,0.1
		c0,0,0.1,0.1,0.1,0.1c0.1,0.2,0.3,0.4,0.4,0.5c0.1,0.1,0.1,0.1,0.2,0.2c0.2,0.2,0.3,0.4,0.5,0.6c0,0,0,0,0,0c0,0,0,0,0.1,0.1
		c0.2,0.2,0.4,0.4,0.6,0.6c0.1,0.1,0.1,0.1,0.2,0.2c0.1,0.1,0.1,0.1,0.2,0.2l0.1-0.1C97.4,130.7,99,130.4,101.4,129.7z"/>
	<path class="st4" d="M119.4,121.3c0.9-0.7,1.6-1.5,2.3-2.3c0.2-0.3,0.5-0.6,0.7-0.9c0-0.1-0.1-0.1-0.1-0.2c0-0.1-0.1-0.1-0.1-0.2
		c-0.1-0.2-0.3-0.4-0.4-0.6c0,0,0,0,0,0c0,0,0,0,0,0c0,0,0-0.1-0.1-0.1c-0.2-0.4-0.5-0.7-0.7-1.1c0,0,0-0.1-0.1-0.1
		c-0.3-0.4-0.5-0.7-0.8-1.1c0,0,0,0,0-0.1c0,0,0-0.1-0.1-0.1c-0.2-0.3-0.4-0.5-0.6-0.8c0,0,0,0,0,0c0,0,0,0,0,0
		c-0.3-0.4-0.6-0.8-1-1.2c0,0,0-0.1-0.1-0.1c-0.3-0.4-0.7-0.8-1-1.2c0,0,0,0-0.1-0.1c-0.3-0.4-0.7-0.8-1-1.1c0,0,0-0.1-0.1-0.1
		c-0.3-0.3-0.6-0.7-0.9-1c0,0-0.1-0.1-0.1-0.1c0,0,0,0,0,0c0,0-0.1-0.1-0.1-0.1c-0.1-0.1-0.3-0.3-0.4-0.4c0-0.1-0.1-0.1-0.1-0.2
		c-0.2-0.2-0.3-0.4-0.5-0.5c-0.2-0.2-0.3-0.3-0.5-0.5c0,0,0,0,0,0c0,0,0,0,0,0c-1.6,0.3-3.5,1-5.5,1.8c-1.3,0.5-2.5,1.1-3.8,1.7
		C111.8,111.1,117.2,118.1,119.4,121.3z"/>
	<path class="st5" d="M125.3,127.2c0-0.1,0-0.3,0-0.4c0-0.1,0-0.1,0-0.2c0-0.2,0-0.3,0-0.5c0,0,0-0.1,0-0.1c0-0.2,0-0.4-0.1-0.6
		c0-0.1,0-0.1,0-0.2c0-0.1,0-0.3-0.1-0.4c0-0.1,0-0.1,0-0.2c0,0,0,0,0-0.1c-0.2-0.6-0.3-1.3-0.6-2c0,0,0,0,0,0
		c-0.1-0.2-0.1-0.3-0.2-0.5c0-0.1,0-0.1-0.1-0.2c-0.1-0.2-0.2-0.4-0.3-0.6c0,0,0-0.1-0.1-0.1c-0.1-0.2-0.2-0.3-0.2-0.5
		c0-0.1-0.1-0.1-0.1-0.2c0,0,0-0.1-0.1-0.1c-0.1-0.1-0.1-0.2-0.2-0.3c0-0.1-0.1-0.1-0.1-0.2c-0.1-0.2-0.2-0.4-0.3-0.6c0,0,0,0,0-0.1
		c-0.1-0.2-0.2-0.4-0.3-0.6c0-0.1-0.1-0.1-0.1-0.2c-0.1-0.1-0.1-0.2-0.2-0.3c-0.2,0.3-0.5,0.6-0.7,0.9c-0.7,0.8-1.5,1.6-2.3,2.3
		c-3.6,3-8.4,5.2-12.6,6.7c-2,0.7-3.8,1.2-5.3,1.6c-2.4,0.7-4.1,1-4.1,1l-0.1,0.1c0.1,0.1,0.2,0.2,0.2,0.2c0.1,0.1,0.1,0.1,0.2,0.2
		c0.1,0.1,0.3,0.3,0.4,0.4c0.1,0.1,0.1,0.1,0.2,0.2c0.2,0.2,0.4,0.3,0.6,0.5c0,0,0.1,0.1,0.1,0.1c0,0,0,0,0,0
		c0.2,0.2,0.5,0.3,0.7,0.5c0.1,0,0.1,0.1,0.2,0.1c0.2,0.1,0.3,0.2,0.5,0.4c0.1,0.1,0.2,0.1,0.3,0.2c0.2,0.1,0.3,0.2,0.5,0.3
		c0.1,0,0.2,0.1,0.3,0.1c0.2,0.1,0.5,0.3,0.7,0.4c0,0,0.1,0,0.1,0c0.3,0.1,0.6,0.3,0.8,0.4c0.1,0,0.2,0.1,0.3,0.1
		c0.2,0.1,0.4,0.2,0.6,0.2c0.1,0,0.2,0.1,0.3,0.1c0.2,0.1,0.4,0.1,0.6,0.2c0.1,0,0.2,0.1,0.3,0.1c0.3,0.1,0.6,0.2,0.9,0.2
		c0,0,0,0,0.1,0c0.3,0.1,0.7,0.2,1,0.2c0.1,0,0.2,0,0.3,0.1c0.2,0,0.5,0.1,0.7,0.1c0.1,0,0.2,0,0.4,0.1c0.2,0,0.5,0.1,0.8,0.1
		c0.1,0,0.2,0,0.3,0c0.3,0,0.8,0.1,1.2,0.2c4.9-2.2,10-5.1,14.3-8.6c0-0.2,0.1-0.4,0.1-0.6C125.3,127.3,125.3,127.3,125.3,127.2z"/>
	<path class="st3" d="M135.3,114.4c-1.8,5.3-5.5,9.8-10.1,13.5c-4.3,3.5-9.4,6.4-14.3,8.6c0,0,0,0,0,0c-10.4,4.9-20.1,6.9-20.2,6.9
		c1.2,0.5,2.3,0.9,3.4,1.1c0,0,0,0,0,0c0.5,0.2,1,0.2,1.5,0.2c0.1,0,0.2,0,0.3,0c8,0.9,21.1,0.9,37.2-9.6c0.1-0.1,0.3-0.2,0.4-0.3
		c0,0,0,0,0,0C137.6,132.3,137.2,121.9,135.3,114.4z"/>
	<path class="st6" d="M90.7,143.4C90.7,143.4,90.7,143.4,90.7,143.4C90.7,143.4,90.7,143.4,90.7,143.4
		C90.7,143.4,90.7,143.4,90.7,143.4z"/>
	<path class="st7" d="M108.1,102C108.1,102,108.1,102,108.1,102C108.1,102,108.1,102,108.1,102C108.1,102,108.1,102,108.1,102
		c0.1,0.1,0.1,0.1,0.1,0.1c0,0,0,0,0,0c0,0,0.1,0.1,0.1,0.1c0,0,0,0,0,0c0.1,0.1,0.1,0.1,0.2,0.2c0,0,0,0,0.1,0
		c0.1,0.1,0.2,0.1,0.3,0.2c0,0,0,0,0.1,0.1c0.1,0.1,0.2,0.2,0.3,0.3c0,0,0,0,0,0c0.1,0.1,0.2,0.2,0.4,0.3c0,0,0.1,0,0.1,0.1
		c0.1,0.1,0.3,0.2,0.4,0.4c0,0,0,0,0,0c0,0,0,0,0.1,0.1c0.1,0.1,0.2,0.2,0.3,0.2c0,0,0.1,0.1,0.1,0.1c0.1,0.1,0.2,0.2,0.3,0.3
		c0,0,0,0,0.1,0c0.1,0.1,0.3,0.3,0.4,0.4c0,0,0.1,0.1,0.1,0.1c0.1,0.1,0.2,0.2,0.3,0.3c0,0,0.1,0.1,0.1,0.1c0.1,0.1,0.3,0.3,0.4,0.4
		c0,0,0,0,0,0c0,0,0,0,0,0c0.1,0.1,0.3,0.3,0.5,0.5c0,0,0.1,0.1,0.1,0.1c0.1,0.1,0.2,0.2,0.3,0.4c0,0,0.1,0.1,0.1,0.2c0,0,0,0,0,0
		c0.2,0.2,0.3,0.3,0.5,0.5c0.2,0.2,0.3,0.3,0.5,0.5c0,0.1,0.1,0.1,0.1,0.2c0.1,0.1,0.3,0.3,0.4,0.4c0,0,0.1,0.1,0.1,0.1c0,0,0,0,0,0
		c0,0,0.1,0.1,0.1,0.1c0.3,0.3,0.6,0.7,0.9,1c0,0,0,0.1,0.1,0.1c0.3,0.4,0.7,0.7,1,1.1c0,0,0,0,0.1,0.1c0.3,0.4,0.7,0.8,1,1.2
		c0,0,0.1,0.1,0.1,0.1c0.3,0.4,0.6,0.8,1,1.2c0,0,0,0,0,0c0,0,0,0,0,0c0.2,0.3,0.4,0.5,0.6,0.8c0,0,0,0.1,0.1,0.1c0,0,0,0,0,0.1
		c0.3,0.4,0.5,0.7,0.8,1.1c0,0,0,0.1,0.1,0.1c0.3,0.4,0.5,0.7,0.7,1.1c0,0,0,0.1,0.1,0.1c0,0,0,0,0,0c0,0,0,0,0,0
		c0.1,0.2,0.3,0.4,0.4,0.6c0,0.1,0.1,0.1,0.1,0.2c0,0.1,0.1,0.1,0.1,0.2c0.1,0.1,0.1,0.2,0.2,0.3c0,0.1,0.1,0.1,0.1,0.2
		c0.1,0.2,0.2,0.4,0.3,0.6c0,0,0,0,0,0.1c0.1,0.2,0.2,0.4,0.3,0.6c0,0.1,0.1,0.1,0.1,0.2c0.1,0.1,0.1,0.2,0.2,0.3c0,0,0,0.1,0.1,0.1
		c0,0.1,0.1,0.1,0.1,0.2c0.1,0.2,0.2,0.3,0.2,0.5c0,0,0,0.1,0.1,0.1c0.1,0.2,0.2,0.4,0.3,0.6c0,0.1,0,0.1,0.1,0.2
		c0.1,0.2,0.1,0.3,0.2,0.5c0,0,0,0,0,0c0,0.1,0,0.1,0.1,0.2c0.1,0.2,0.1,0.3,0.2,0.5c0,0.1,0,0.1,0,0.2c0.1,0.2,0.1,0.4,0.2,0.6
		c0,0,0,0.1,0,0.1c0,0.1,0.1,0.3,0.1,0.4c0,0,0,0,0,0.1c0,0.1,0,0.1,0,0.2c0,0.1,0,0.3,0.1,0.4c0,0.1,0,0.1,0,0.2
		c0,0.2,0,0.4,0.1,0.6c0,0,0,0.1,0,0.1c0,0.2,0,0.3,0,0.5c0,0.1,0,0.1,0,0.2c0,0.1,0,0.3,0,0.4c0,0.1,0,0.1,0,0.2
		c0,0.2,0,0.4-0.1,0.6c4.6-3.7,8.3-8.2,10.1-13.5c-1-3.8-2.4-6.9-3.8-7.6c-0.3-0.2-0.6-0.3-1-0.5c-0.6-0.4-1.2-0.7-1.8-0.9
		c-3.1-1.5-6.6-3.1-8.9-4.4c-0.2-0.1-0.4-0.3-0.7-0.4c-0.3-0.2-0.5-0.3-0.8-0.5c-0.4-0.2-1.1-0.5-2-0.9c0,0,0,0,0,0c0,0,0,0,0,0
		C116.4,99.2,113,100.2,108.1,102z"/>
	<path class="st5" d="M89.2,109.6C89.2,109.6,89.2,109.6,89.2,109.6C89.2,109.6,89.2,109.6,89.2,109.6
		C89.2,109.6,89.2,109.7,89.2,109.6c0,0.1,0,0.1,0,0.2c0,0,0,0,0,0.1c0,0,0,0.1,0,0.1c0,0,0,0,0,0.1c0,0,0,0.1,0,0.1
		c0,0,0,0.1,0,0.1c0,0,0,0.1,0,0.1c0,0,0,0.1,0,0.1c0,0,0,0.1,0,0.1c0,0,0,0.1,0,0.1c0,0.1,0,0.1,0,0.2c0,0,0,0.1,0,0.1
		c0,0.1,0,0.1,0,0.2c0,0,0,0.1,0,0.1c0,0.1,0,0.2,0,0.4c0,0,0,0,0,0.1c0,0.1,0,0.2,0,0.3c0,0,0,0.1,0,0.1c0,0.1,0,0.2,0,0.3
		c0,0.1,0,0.1,0,0.2c0,0.1,0,0.2,0,0.3c0,0.1,0,0.1,0,0.2c0,0.1,0,0.2,0,0.3c0,0.1,0,0.1,0,0.2c0,0.1,0,0.2,0,0.3c0,0.1,0,0.1,0,0.2
		c0,0.1,0,0.2,0,0.3c0,0,0,0.1,0,0.1c0,0,0,0.1,0,0.1c0,0.1,0,0.2,0.1,0.4c0,0.1,0,0.1,0,0.2c0,0.2,0.1,0.4,0.1,0.5c0,0,0,0,0,0
		c0,0.2,0.1,0.4,0.1,0.6c0,0.1,0,0.1,0,0.2c0,0.1,0.1,0.3,0.1,0.4c0,0.1,0,0.2,0.1,0.2c0,0.1,0.1,0.3,0.1,0.4c0,0,0,0,0,0
		c0,0.1,0,0.2,0.1,0.2c0,0.1,0.1,0.2,0.1,0.4c0.9-0.6,2.6-1.6,4.7-2.7c0.8-0.5,1.7-0.9,2.6-1.4c2-1.1,4.2-2.2,6.5-3.3
		c1.3-0.6,2.6-1.2,3.8-1.7c2-0.8,3.9-1.5,5.5-1.8c0,0,0,0,0,0c0-0.1-0.1-0.1-0.1-0.2c-0.1-0.1-0.2-0.2-0.3-0.4c0,0-0.1-0.1-0.1-0.1
		c-0.2-0.2-0.3-0.3-0.5-0.5c0,0,0,0,0,0c0,0,0,0,0,0c-0.1-0.1-0.3-0.3-0.4-0.4c0,0-0.1-0.1-0.1-0.1c-0.1-0.1-0.2-0.2-0.3-0.3
		c0,0-0.1-0.1-0.1-0.1c-0.1-0.1-0.3-0.3-0.4-0.4c0,0,0,0-0.1,0c-0.1-0.1-0.2-0.2-0.3-0.3c0,0-0.1-0.1-0.1-0.1
		c-0.1-0.1-0.2-0.2-0.3-0.2c0,0-0.1-0.1-0.1-0.1c-0.1-0.1-0.3-0.2-0.4-0.4c0,0-0.1,0-0.1-0.1c-0.1-0.1-0.2-0.2-0.4-0.3c0,0,0,0,0,0
		c-0.1-0.1-0.2-0.2-0.3-0.3c0,0,0,0-0.1-0.1c-0.1-0.1-0.2-0.2-0.3-0.2c0,0,0,0-0.1,0c-0.1-0.1-0.1-0.1-0.2-0.2c0,0,0,0,0,0
		c-0.1,0-0.1-0.1-0.1-0.1c0,0,0,0,0,0c0,0-0.1-0.1-0.1-0.1c0,0,0,0,0,0c0,0,0,0,0,0c0,0,0,0,0,0c0,0,0,0,0,0l0,0h0
		C102.7,103.9,95.5,106.6,89.2,109.6C89.2,109.5,89.2,109.5,89.2,109.6C89.2,109.6,89.2,109.6,89.2,109.6
		C89.2,109.6,89.2,109.6,89.2,109.6C89.2,109.6,89.2,109.6,89.2,109.6z"/>
	<path class="st7" d="M110.9,136.6c-0.4,0-0.9-0.1-1.2-0.2c-0.1,0-0.2,0-0.3,0c-0.3,0-0.5-0.1-0.8-0.1c-0.1,0-0.2,0-0.4-0.1
		c-0.2,0-0.5-0.1-0.7-0.1c-0.1,0-0.2,0-0.3-0.1c-0.3-0.1-0.7-0.1-1-0.2c0,0,0,0-0.1,0c-0.3-0.1-0.6-0.2-0.9-0.2
		c-0.1,0-0.2-0.1-0.3-0.1c-0.2-0.1-0.4-0.1-0.6-0.2c-0.1,0-0.2-0.1-0.3-0.1c-0.2-0.1-0.4-0.2-0.6-0.2c-0.1,0-0.2-0.1-0.3-0.1
		c-0.3-0.1-0.6-0.3-0.8-0.4c0,0-0.1,0-0.1,0c-0.2-0.1-0.5-0.2-0.7-0.4c-0.1,0-0.2-0.1-0.3-0.1c-0.2-0.1-0.4-0.2-0.5-0.3
		c-0.1-0.1-0.2-0.1-0.3-0.2c-0.2-0.1-0.4-0.2-0.5-0.4c-0.1,0-0.1-0.1-0.2-0.1c-0.2-0.2-0.5-0.3-0.7-0.5c0,0,0,0,0,0
		c0,0-0.1-0.1-0.1-0.1c-0.2-0.2-0.4-0.3-0.6-0.5c-0.1-0.1-0.1-0.1-0.2-0.2c-0.1-0.1-0.3-0.3-0.4-0.4c-0.1-0.1-0.1-0.1-0.2-0.2
		c-0.1-0.1-0.2-0.2-0.2-0.2c-0.1-0.1-0.1-0.1-0.2-0.2c-0.1-0.1-0.1-0.1-0.2-0.2c-0.2-0.2-0.4-0.4-0.6-0.6c0,0,0,0-0.1-0.1
		c0,0,0,0,0,0c-0.2-0.2-0.3-0.4-0.5-0.6c-0.1-0.1-0.1-0.1-0.2-0.2c-0.1-0.2-0.3-0.3-0.4-0.5c0,0-0.1-0.1-0.1-0.1c0,0,0,0,0-0.1
		c-0.2-0.2-0.3-0.5-0.5-0.7c0,0,0-0.1-0.1-0.1c-0.1-0.2-0.3-0.4-0.4-0.6c0-0.1-0.1-0.1-0.1-0.2c-0.1-0.2-0.2-0.3-0.3-0.5
		c0-0.1-0.1-0.1-0.1-0.2c-0.1-0.2-0.3-0.5-0.4-0.7c0,0,0,0,0,0c-0.2-0.4-0.4-0.8-0.6-1.2c0,0,0,0,0,0c-0.2-0.4-0.4-0.8-0.5-1.2
		c0,0,0,0,0,0c-0.1-0.3-0.2-0.5-0.3-0.8c0-0.1,0-0.1-0.1-0.2c-0.1-0.3-0.2-0.6-0.3-1c0,0,0-0.1,0-0.1c-0.1-0.3-0.2-0.6-0.3-0.9
		c-0.1-0.3-0.2-0.5-0.2-0.8c0-0.1,0-0.1-0.1-0.2c0-0.1-0.1-0.3-0.1-0.4c0-0.1,0-0.2-0.1-0.2c0,0,0,0,0,0c0,0,0,0,0,0
		c0-0.1-0.1-0.2-0.1-0.4c0-0.1,0-0.2-0.1-0.2c0,0,0,0,0,0c0-0.1-0.1-0.3-0.1-0.4c0-0.1,0-0.2-0.1-0.2c0-0.1-0.1-0.3-0.1-0.4
		c0-0.1,0-0.1,0-0.2c0-0.2-0.1-0.4-0.1-0.6c0,0,0,0,0,0c0-0.2-0.1-0.4-0.1-0.5c0-0.1,0-0.1,0-0.2c0-0.1,0-0.2-0.1-0.4
		c0,0,0-0.1,0-0.1c0,0,0-0.1,0-0.1c0-0.1,0-0.2,0-0.3c0-0.1,0-0.1,0-0.2c0-0.1,0-0.2,0-0.3c0-0.1,0-0.1,0-0.2c0-0.1,0-0.2,0-0.3
		c0-0.1,0-0.1,0-0.2c0-0.1,0-0.2,0-0.3c0-0.1,0-0.1,0-0.2c0-0.1,0-0.2,0-0.3c0,0,0-0.1,0-0.1c0-0.1,0-0.2,0-0.3c0,0,0,0,0-0.1
		c0-0.1,0-0.2,0-0.4c0,0,0-0.1,0-0.1c0-0.1,0-0.2,0-0.2c0,0,0-0.1,0-0.1c0-0.1,0-0.1,0-0.2c0,0,0-0.1,0-0.1c0,0,0-0.1,0-0.1
		c0,0,0-0.1,0-0.1c0,0,0-0.1,0-0.1c0,0,0-0.1,0-0.1c0,0,0-0.1,0-0.1c0,0,0,0,0-0.1c0,0,0-0.1,0-0.1c0,0,0,0,0-0.1c0,0,0,0,0-0.1
		c0,0,0,0,0,0c0,0,0,0,0,0c0,0,0,0,0,0c0,0,0,0,0,0c0,0,0,0,0,0c-7,3.2-12.9,6.7-14.2,9.7c0,0,0,0,0,0c-0.1,0.8-0.1,1.7,0,2.7
		c0,0.1,0,0.2,0,0.2c0,0,0,0,0,0c0,0,0,0,0,0c0,0.1,0,0.3,0.1,0.4c1.5,8.1,8.7,17.6,15.6,20.9c0,0,0,0,0,0c0,0,0,0,0,0c0,0,0,0,0,0
		C90.9,143.5,100.5,141.4,110.9,136.6C110.9,136.6,110.9,136.6,110.9,136.6z"/>
	<path class="st3" d="M108.1,102L108.1,102C108.1,102,108.1,102,108.1,102L108.1,102c4.9-1.7,8.3-2.8,8.3-2.8c0,0,0,0,0,0
		c-5.8-1.9-20.8-4.5-23.3-2.6c-0.3,0.1-0.6,0.3-0.9,0.4c-1,0.4-2.9,1.7-4.2,5.4c-1.6,4.7-11.9,9.1-13,16.8c1.3-2.9,7.2-6.4,14.2-9.7
		c0,0,0,0,0,0C95.5,106.6,102.7,103.9,108.1,102L108.1,102z"/>
</g>
<path class="st2" d="M149.8,62.4c0,0,0.1,0,0.1,0C149.9,62.4,149.9,62.4,149.8,62.4C149.8,62.4,149.8,62.4,149.8,62.4z"/>
<path class="st2" d="M146.7,62.5C146.7,62.5,146.7,62.5,146.7,62.5C146.7,62.5,146.7,62.5,146.7,62.5L146.7,62.5z"/>
<path class="st4" d="M168.3,88.2c0.6-1.4,1.3-3.2,1.9-5.1c-8,1.5-17.8-3.4-19.1-4.1c-0.1,1-0.3,2-0.4,3c-0.3,2.4-0.4,4.3-0.5,5.4
	c0,0,0,0,0,0c0,0,0,0,0,0c0.1,0,0.2,0.1,0.3,0.1c0.2,0.1,0.3,0.2,0.5,0.2c0.1,0,0.2,0.1,0.2,0.1c0.3,0.1,0.6,0.3,0.9,0.4
	c0.3,0.2,0.7,0.3,1,0.5c0.1,0,0.1,0,0.2,0.1c0.4,0.2,0.7,0.3,1.1,0.5c0.1,0,0.1,0.1,0.2,0.1c0.3,0.1,0.6,0.3,1,0.4c0,0,0,0,0,0
	c0.5,0.2,1,0.3,1.5,0.5c0,0,0,0,0,0c0.5,0.2,1,0.3,1.5,0.5c0,0,0,0,0,0c0.3,0.1,0.6,0.2,0.9,0.2c0.1,0,0.2,0,0.3,0.1
	c0.2,0.1,0.5,0.1,0.7,0.2c0.1,0,0.2,0,0.3,0.1c0.3,0.1,0.5,0.1,0.8,0.2c0,0,0.1,0,0.1,0c0.3,0.1,0.6,0.1,1,0.2c0,0,0.1,0,0.1,0
	c0.1,0,0.1,0,0.2,0c0.3,0,0.5,0.1,0.8,0.1c0.1,0,0.2,0,0.3,0c0.3,0,0.6,0.1,0.9,0.1c0,0,0,0,0,0c0,0,0.1,0,0.1,0c0.3,0,0.6,0,0.9,0
	c0.1,0,0.2,0,0.3,0c0.1,0,0.2,0,0.3,0l0-0.1C166.5,91.9,167.3,90.4,168.3,88.2z"/>
<path class="st6" d="M174,106.3C174.1,106.3,174.1,106.3,174,106.3C174.1,106.3,174.1,106.3,174,106.3
	C174,106.3,174,106.3,174,106.3z"/>
<path class="st2" d="M175.8,92.2C175.8,92.2,175.8,92.1,175.8,92.2C175.8,92.1,175.8,92.1,175.8,92.2
	C175.8,92.1,175.8,92.1,175.8,92.2c0,0.1,0.1,0.3,0.1,0.4C175.9,92.5,175.9,92.3,175.8,92.2z"/>
<path class="st3" d="M157.5,96.1c2.9-1,6.2-2.4,9-4.2c0.3-0.6,0.6-1.3,1-2.2c0.3-0.8,0.7-1.7,1.1-2.6c-1-1.2-2.2-2.6-3.6-3.9
	c-5-0.4-9.8-2.4-12.3-3.5c-1.4,0.7-2.8,1.4-4.1,2.1C148.8,83.1,151.2,91.9,157.5,96.1z"/>
<path class="st4" d="M152.2,97.7c1.5-0.4,3.3-1,5.3-1.6c-6.3-4.2-8.7-13-9-14.2c-0.9,0.5-1.8,1-2.6,1.4c-2.1,1.2-3.7,2.2-4.7,2.7
	c0,0,0,0,0,0c0,0,0,0,0,0c0,0.1,0,0.2,0.1,0.2c0,0.1,0.1,0.3,0.1,0.4c0,0.1,0,0.1,0.1,0.2c0.1,0.3,0.1,0.5,0.2,0.8
	c0.1,0.3,0.2,0.6,0.3,0.9c0,0,0,0.1,0,0.1c0.1,0.3,0.2,0.6,0.3,1c0,0.1,0,0.1,0.1,0.2c0.1,0.3,0.2,0.5,0.3,0.8c0,0,0,0,0,0
	c0.2,0.4,0.3,0.8,0.5,1.2c0,0,0,0,0,0c0.2,0.4,0.4,0.8,0.6,1.2c0,0,0,0,0,0c0.1,0.2,0.2,0.5,0.4,0.7c0,0.1,0.1,0.1,0.1,0.2
	c0.1,0.2,0.2,0.3,0.3,0.5c0,0.1,0.1,0.1,0.1,0.2c0.1,0.2,0.3,0.4,0.4,0.6c0,0,0,0.1,0.1,0.1c0.2,0.2,0.3,0.5,0.5,0.7c0,0,0,0,0,0.1
	c0,0,0.1,0.1,0.1,0.1c0.1,0.2,0.3,0.4,0.4,0.5c0.1,0.1,0.1,0.1,0.2,0.2c0.2,0.2,0.3,0.4,0.5,0.6c0,0,0,0,0,0c0,0,0,0,0.1,0.1
	c0.2,0.2,0.4,0.4,0.6,0.6c0.1,0.1,0.1,0.1,0.2,0.2c0.1,0.1,0.1,0.1,0.2,0.2l0.1-0.1C148.2,98.7,149.8,98.4,152.2,97.7z"/>
<path class="st3" d="M165,83.3c1.4,1.3,2.7,2.7,3.6,3.9c0.4-1.1,0.8-2.2,1.2-3.4c0.1-0.2,0.1-0.4,0.2-0.7
	C168.4,83.4,166.6,83.4,165,83.3z"/>
<path class="st5" d="M176.1,95.2c0-0.1,0-0.3,0-0.4c0-0.1,0-0.1,0-0.2c0-0.2,0-0.3,0-0.5c0,0,0-0.1,0-0.1c0-0.2,0-0.4-0.1-0.6
	c0-0.1,0-0.1,0-0.2c0-0.1,0-0.3-0.1-0.4c0-0.1,0-0.1,0-0.2c0,0,0,0,0-0.1c0-0.2-0.1-0.3-0.1-0.5c-0.1,0.1-0.2,0.1-0.4,0.2
	c-0.2,0.1-0.5,0.2-0.8,0.3c-0.1,0-0.2,0.1-0.3,0.1c-0.4,0.1-0.7,0.3-1.1,0.4c0,0-0.1,0-0.1,0c-0.3,0.1-0.6,0.2-1,0.3
	c-0.1,0-0.2,0.1-0.4,0.1c-0.3,0.1-0.5,0.1-0.8,0.2c-0.1,0-0.3,0.1-0.4,0.1c-0.3,0.1-0.5,0.1-0.8,0.1c-0.1,0-0.2,0-0.3,0.1
	c-0.4,0.1-0.7,0.1-1.1,0.1c0,0,0,0,0,0c-0.1,0-0.1,0-0.2,0c-0.3,0-0.6,0.1-0.9,0.1c-0.1,0-0.2,0-0.4,0c-0.3,0-0.5,0-0.8,0
	c-0.1,0-0.3,0-0.4,0c-0.2,0-0.3,0-0.5,0l0-0.1c0,0,0.4-0.8,1.1-2.2c-2.9,1.8-6.1,3.1-9,4.2c-2,0.7-3.8,1.2-5.3,1.6
	c-2.4,0.7-4.1,1-4.1,1l-0.1,0.1c0.1,0.1,0.2,0.2,0.2,0.2c0.1,0.1,0.1,0.1,0.2,0.2c0.1,0.1,0.3,0.3,0.4,0.4c0.1,0.1,0.1,0.1,0.2,0.2
	c0.2,0.2,0.4,0.3,0.6,0.5c0,0,0.1,0.1,0.1,0.1c0,0,0,0,0,0c0.2,0.2,0.5,0.3,0.7,0.5c0.1,0,0.1,0.1,0.2,0.1c0.2,0.1,0.3,0.2,0.5,0.4
	c0.1,0.1,0.2,0.1,0.3,0.2c0.2,0.1,0.3,0.2,0.5,0.3c0.1,0,0.2,0.1,0.3,0.1c0.2,0.1,0.5,0.3,0.7,0.4c0,0,0.1,0,0.1,0
	c0.3,0.1,0.6,0.3,0.8,0.4c0.1,0,0.2,0.1,0.3,0.1c0.2,0.1,0.4,0.2,0.6,0.2c0.1,0,0.2,0.1,0.3,0.1c0.2,0.1,0.4,0.1,0.6,0.2
	c0.1,0,0.2,0.1,0.3,0.1c0.3,0.1,0.6,0.2,0.9,0.2c0,0,0,0,0.1,0c0.3,0.1,0.7,0.2,1,0.2c0.1,0,0.2,0,0.3,0.1c0.2,0,0.5,0.1,0.7,0.1
	c0.1,0,0.2,0,0.4,0.1c0.2,0,0.5,0.1,0.8,0.1c0.1,0,0.2,0,0.3,0c0.3,0,0.8,0.1,1.2,0.2c4.9-2.2,10-5.1,14.3-8.6
	c0-0.2,0.1-0.4,0.1-0.6C176.1,95.3,176.1,95.3,176.1,95.2z"/>
<path class="st3" d="M178.6,103.6c-0.3,0.4-0.8,0.7-1.2,0.9c0,0,0,0,0,0c-0.9,0.7-2,1.3-3.2,1.7c0.1,0,2.9-5.4,5.1-13.2
	c-1,1-2.1,2-3.2,2.9c-4.3,3.5-9.4,6.4-14.3,8.6c0,0,0,0,0,0c-10.4,4.9-20.1,6.9-20.2,6.9c1.2,0.5,2.3,0.9,3.4,1.1c0,0,0,0,0,0
	c0.5,0.2,1,0.2,1.5,0.2c0.1,0,0.2,0,0.3,0c8,0.9,21.1,0.9,37.2-9.6c0.1-0.1,0.3-0.2,0.4-0.3c0,0,0,0,0,0c1.1-0.7,1.9-2.1,2.3-3.9
	c-2.5,2.1-5.3,3.4-8.1,4.4C178.7,103.4,178.6,103.5,178.6,103.6z"/>
<path class="st6" d="M141.5,111.4C141.5,111.4,141.5,111.4,141.5,111.4C141.5,111.4,141.5,111.4,141.5,111.4
	C141.5,111.4,141.5,111.4,141.5,111.4z"/>
<path class="st7" d="M179.2,90.1c-0.1,0.1-0.2,0.1-0.3,0.2c-0.3,0.2-0.7,0.5-1,0.7c0,0,0,0-0.1,0c-0.3,0.2-0.6,0.4-1,0.6
	c-0.1,0.1-0.2,0.1-0.3,0.2c-0.2,0.1-0.5,0.2-0.7,0.4c0,0,0,0,0,0.1c0,0.1,0.1,0.3,0.1,0.4c0,0,0,0,0,0.1c0,0.1,0,0.1,0,0.2
	c0,0.1,0,0.3,0.1,0.4c0,0.1,0,0.1,0,0.2c0,0.2,0,0.4,0.1,0.6c0,0,0,0.1,0,0.1c0,0.2,0,0.3,0,0.5c0,0.1,0,0.1,0,0.2
	c0,0.1,0,0.3,0,0.4c0,0.1,0,0.1,0,0.2c0,0.2,0,0.4-0.1,0.6c1.1-0.9,2.2-1.9,3.2-2.9c0.3-1.2,0.7-2.4,1-3.7c-0.1,0.1-0.2,0.2-0.3,0.2
	C179.7,89.8,179.4,90,179.2,90.1z"/>
<path class="st5" d="M140,77.6C140,77.6,140,77.6,140,77.6C140,77.6,140,77.6,140,77.6C140,77.6,140,77.7,140,77.6
	c0,0.1,0,0.1,0,0.2c0,0,0,0,0,0.1c0,0,0,0.1,0,0.1c0,0,0,0,0,0.1c0,0,0,0.1,0,0.1c0,0,0,0.1,0,0.1c0,0,0,0.1,0,0.1c0,0,0,0.1,0,0.1
	c0,0,0,0.1,0,0.1c0,0,0,0.1,0,0.1c0,0.1,0,0.1,0,0.2c0,0,0,0.1,0,0.1c0,0.1,0,0.1,0,0.2c0,0,0,0.1,0,0.1c0,0.1,0,0.2,0,0.4
	c0,0,0,0,0,0.1c0,0.1,0,0.2,0,0.3c0,0,0,0.1,0,0.1c0,0.1,0,0.2,0,0.3c0,0.1,0,0.1,0,0.2c0,0.1,0,0.2,0,0.3c0,0.1,0,0.1,0,0.2
	c0,0.1,0,0.2,0,0.3c0,0.1,0,0.1,0,0.2c0,0.1,0,0.2,0,0.3c0,0.1,0,0.1,0,0.2c0,0.1,0,0.2,0,0.3c0,0,0,0.1,0,0.1c0,0,0,0.1,0,0.1
	c0,0.1,0,0.2,0.1,0.4c0,0.1,0,0.1,0,0.2c0,0.2,0.1,0.4,0.1,0.5c0,0,0,0,0,0c0,0.2,0.1,0.4,0.1,0.6c0,0.1,0,0.1,0,0.2
	c0,0.1,0.1,0.3,0.1,0.4c0,0.1,0,0.2,0.1,0.2c0,0.1,0.1,0.3,0.1,0.4c0,0,0,0,0,0c0,0.1,0,0.2,0.1,0.2c0,0.1,0.1,0.2,0.1,0.4
	c0.9-0.6,2.6-1.6,4.7-2.7c0.8-0.5,1.7-0.9,2.6-1.4c1.3-0.7,2.7-1.4,4.1-2.1c-0.8-0.4-1.3-0.6-1.6-0.8c0.3-2.1,0.6-4.3,1-6.5
	c-0.6,0.2-1.3,0.5-1.9,0.7c-0.5,0.4-1.1,0.8-1.6,1.3c0-0.2,0.1-0.5,0.2-0.7C145.8,74.9,142.8,76.2,140,77.6
	C140,77.5,140,77.5,140,77.6C140,77.6,140,77.6,140,77.6C140,77.6,140,77.6,140,77.6C140,77.6,140,77.6,140,77.6z"/>
<path class="st7" d="M161.7,104.6C161.7,104.6,161.7,104.6,161.7,104.6c-0.4,0-0.9-0.1-1.2-0.2c-0.1,0-0.2,0-0.3,0
	c-0.3,0-0.5-0.1-0.8-0.1c-0.1,0-0.2,0-0.4-0.1c-0.2,0-0.5-0.1-0.7-0.1c-0.1,0-0.2,0-0.3-0.1c-0.3-0.1-0.7-0.1-1-0.2c0,0,0,0-0.1,0
	c-0.3-0.1-0.6-0.2-0.9-0.2c-0.1,0-0.2-0.1-0.3-0.1c-0.2-0.1-0.4-0.1-0.6-0.2c-0.1,0-0.2-0.1-0.3-0.1c-0.2-0.1-0.4-0.2-0.6-0.2
	c-0.1,0-0.2-0.1-0.3-0.1c-0.3-0.1-0.6-0.3-0.8-0.4c0,0-0.1,0-0.1,0c-0.2-0.1-0.5-0.2-0.7-0.4c-0.1,0-0.2-0.1-0.3-0.1
	c-0.2-0.1-0.4-0.2-0.5-0.3c-0.1-0.1-0.2-0.1-0.3-0.2c-0.2-0.1-0.4-0.2-0.5-0.4c-0.1,0-0.1-0.1-0.2-0.1c-0.2-0.2-0.5-0.3-0.7-0.5
	c0,0,0,0,0,0c0,0-0.1-0.1-0.1-0.1c-0.2-0.2-0.4-0.3-0.6-0.5c-0.1-0.1-0.1-0.1-0.2-0.2c-0.1-0.1-0.3-0.3-0.4-0.4
	c-0.1-0.1-0.1-0.1-0.2-0.2c-0.1-0.1-0.2-0.2-0.2-0.2c-0.1-0.1-0.1-0.1-0.2-0.2c-0.1-0.1-0.1-0.1-0.2-0.2c-0.2-0.2-0.4-0.4-0.6-0.6
	c0,0,0,0-0.1-0.1c0,0,0,0,0,0c-0.2-0.2-0.3-0.4-0.5-0.6c-0.1-0.1-0.1-0.1-0.2-0.2c-0.1-0.2-0.3-0.3-0.4-0.5c0,0-0.1-0.1-0.1-0.1
	c0,0,0,0,0-0.1c-0.2-0.2-0.3-0.5-0.5-0.7c0,0,0-0.1-0.1-0.1c-0.1-0.2-0.3-0.4-0.4-0.6c0-0.1-0.1-0.1-0.1-0.2
	c-0.1-0.2-0.2-0.3-0.3-0.5c0-0.1-0.1-0.1-0.1-0.2c-0.1-0.2-0.3-0.5-0.4-0.7c0,0,0,0,0,0c-0.2-0.4-0.4-0.8-0.6-1.2c0,0,0,0,0,0
	c-0.2-0.4-0.4-0.8-0.5-1.2c0,0,0,0,0,0c-0.1-0.3-0.2-0.5-0.3-0.8c0-0.1,0-0.1-0.1-0.2c-0.1-0.3-0.2-0.6-0.3-1c0,0,0-0.1,0-0.1
	c-0.1-0.3-0.2-0.6-0.3-0.9c-0.1-0.3-0.2-0.5-0.2-0.8c0-0.1,0-0.1-0.1-0.2c0-0.1-0.1-0.3-0.1-0.4c0-0.1,0-0.2-0.1-0.2c0,0,0,0,0,0
	c0,0,0,0,0,0c0-0.1-0.1-0.2-0.1-0.4c0-0.1,0-0.2-0.1-0.2c0,0,0,0,0,0c0-0.1-0.1-0.3-0.1-0.4c0-0.1,0-0.2-0.1-0.2
	c0-0.1-0.1-0.3-0.1-0.4c0-0.1,0-0.1,0-0.2c0-0.2-0.1-0.4-0.1-0.6c0,0,0,0,0,0c0-0.2-0.1-0.4-0.1-0.5c0-0.1,0-0.1,0-0.2
	c0-0.1,0-0.2-0.1-0.4c0,0,0-0.1,0-0.1c0,0,0-0.1,0-0.1c0-0.1,0-0.2,0-0.3c0-0.1,0-0.1,0-0.2c0-0.1,0-0.2,0-0.3c0-0.1,0-0.1,0-0.2
	c0-0.1,0-0.2,0-0.3c0-0.1,0-0.1,0-0.2c0-0.1,0-0.2,0-0.3c0-0.1,0-0.1,0-0.2c0-0.1,0-0.2,0-0.3c0,0,0-0.1,0-0.1c0-0.1,0-0.2,0-0.3
	c0,0,0,0,0-0.1c0-0.1,0-0.2,0-0.4c0,0,0-0.1,0-0.1c0-0.1,0-0.2,0-0.2c0,0,0-0.1,0-0.1c0-0.1,0-0.1,0-0.2c0,0,0-0.1,0-0.1
	c0,0,0-0.1,0-0.1c0,0,0-0.1,0-0.1c0,0,0-0.1,0-0.1c0,0,0-0.1,0-0.1c0,0,0-0.1,0-0.1c0,0,0,0,0-0.1c0,0,0-0.1,0-0.1c0,0,0,0,0-0.1
	c0,0,0,0,0-0.1c0,0,0,0,0,0c0,0,0,0,0,0c0,0,0,0,0,0c0,0,0,0,0,0c0,0,0,0,0,0c-7,3.2-12.9,6.7-14.2,9.7c0,0,0,0,0,0
	c-0.1,0.8-0.1,1.7,0,2.7c0,0.1,0,0.2,0,0.2c0,0,0,0,0,0c0,0,0,0,0,0c0,0.1,0,0.3,0.1,0.4c1.5,8.1,8.7,17.6,15.6,20.9c0,0,0,0,0,0
	c0,0,0,0,0,0c0,0,0,0,0,0C141.6,111.5,151.3,109.4,161.7,104.6z"/>
<path class="st3" d="M150.2,73.2c0.6-0.3,1.3-0.5,1.9-0.7c0-0.2,0.1-0.3,0.1-0.5C151.5,72.3,150.8,72.7,150.2,73.2z"/>
<path class="st3" d="M149.9,68.9c0.5-1.7,1-3.3,1.5-4.8c-3.6-0.3-6.6-0.3-7.6,0.4c-0.3,0.1-0.6,0.3-0.9,0.4c-1,0.4-2.9,1.7-4.2,5.4
	c-1.6,4.7-11.9,9.1-13,16.8c1.3-2.9,7.2-6.4,14.2-9.7c0,0,0,0,0,0c2.9-1.3,5.9-2.6,8.8-3.8C149.1,72.1,149.5,70.4,149.9,68.9z"/>
<path class="st4" d="M141.5,82C141.5,82,141.5,82,141.5,82C141.5,82,141.5,82,141.5,82C141.5,82.1,141.6,82.1,141.5,82
	c0.1,0.1,0.1,0.1,0.2,0.1c0,0,0,0,0,0c0,0,0.1,0,0.1,0.1c0,0,0,0,0.1,0.1c0,0,0.1,0.1,0.1,0.1c0,0,0.1,0,0.1,0.1
	c0,0,0.1,0.1,0.1,0.1c0,0,0.1,0,0.1,0.1c0,0,0.1,0.1,0.1,0.1c0,0,0.1,0.1,0.1,0.1c0.1,0,0.1,0.1,0.2,0.1c0,0,0.1,0.1,0.1,0.1
	c0.1,0,0.1,0.1,0.2,0.2c0,0,0.1,0,0.1,0.1c0.1,0.1,0.2,0.2,0.4,0.2c0,0,0,0,0.1,0c0.1,0.1,0.2,0.1,0.3,0.2c0,0,0.1,0.1,0.1,0.1
	c0.1,0.1,0.2,0.1,0.3,0.2c0.1,0,0.1,0.1,0.2,0.1c0.1,0.1,0.2,0.1,0.3,0.2c0.1,0,0.1,0.1,0.2,0.1c0.1,0.1,0.2,0.1,0.3,0.2
	c0.1,0,0.1,0.1,0.2,0.1c0.1,0.1,0.2,0.1,0.3,0.2c0.1,0,0.1,0.1,0.2,0.1c0.1,0.1,0.2,0.1,0.3,0.2c0,0,0.1,0.1,0.1,0.1
	c0,0,0.1,0,0.1,0c0.1,0.1,0.3,0.2,0.4,0.2c0.1,0,0.1,0.1,0.2,0.1c0.2,0.1,0.4,0.2,0.6,0.3c0,0,0,0,0,0c0.2,0.1,0.4,0.2,0.6,0.4
	c0.1,0,0.1,0.1,0.2,0.1c0.1,0.1,0.3,0.2,0.5,0.2c0.1,0,0.2,0.1,0.2,0.1c0.1,0.1,0.3,0.2,0.4,0.2c0,0,0,0,0,0c0.1,0,0.2,0.1,0.3,0.1
	c0.1,0.1,0.3,0.1,0.4,0.2c0.1-1.1,0.2-3.1,0.5-5.4c0.1-0.9,0.2-1.9,0.4-3c0.3-2.3,0.7-4.8,1.2-7.2c0.3-1.4,0.6-2.8,0.9-4.1
	c0.5-2.1,1.2-3.9,1.9-5.4c0,0,0,0,0,0c-0.1,0-0.2,0-0.2,0c-0.2,0-0.4,0-0.6,0c-0.1,0-0.1,0-0.2,0c-0.2,0-0.5,0-0.7,0c0,0,0,0,0,0
	c0,0,0,0,0,0c-0.2,0-0.4,0-0.6,0c-0.1,0-0.1,0-0.2,0c-0.2,0-0.3,0-0.5,0c-0.1,0-0.1,0-0.2,0c-0.2,0-0.4,0-0.6,0c0,0-0.1,0-0.1,0
	c-0.2,0-0.3,0-0.5,0c-0.1,0-0.1,0-0.2,0c-0.1,0-0.3,0-0.4,0c0,0-0.1,0-0.1,0c-0.2,0-0.4,0-0.6,0c0,0-0.1,0-0.1,0c-0.2,0-0.4,0-0.5,0
	c0,0,0,0,0,0c-0.2,0-0.3,0-0.4,0c0,0-0.1,0-0.1,0c-0.1,0-0.3,0-0.4,0c0,0-0.1,0-0.1,0c-0.1,0-0.2,0-0.3,0c0,0,0,0-0.1,0
	c-0.1,0-0.1,0-0.2,0c0,0,0,0,0,0c-0.1,0-0.1,0-0.1,0c0,0,0,0,0,0c0,0,0,0,0,0c0,0,0,0,0,0c0,0,0,0,0,0h0l0,0
	C145,67.9,142.8,75.2,141.5,82C141.4,82,141.4,82,141.5,82C141.4,82,141.4,82,141.5,82C141.4,82,141.4,82,141.5,82
	C141.5,82,141.5,82,141.5,82z"/>
<path class="st7" d="M180.9,86.3c-0.2,0.2-0.7,0.5-0.9,0.8c-0.1,0.1-0.2,0.1-0.3,0.2c-0.2,0.2-0.4,0.3-0.6,0.5
	c-0.1,0.1-0.2,0.2-0.3,0.2c-0.2,0.2-0.4,0.3-0.6,0.4c-0.1,0.1-0.2,0.1-0.3,0.2c-0.3,0.2-0.6,0.4-0.9,0.6c0,0,0,0-0.1,0
	c-0.3,0.2-0.5,0.3-0.8,0.5c-0.1,0.1-0.2,0.1-0.3,0.1c-0.2,0.1-0.4,0.2-0.6,0.3c-0.1,0-0.2,0.1-0.3,0.1c-0.2,0.1-0.4,0.2-0.6,0.3
	c-0.1,0-0.2,0.1-0.3,0.1c-0.3,0.1-0.6,0.2-0.9,0.3c0,0-0.1,0-0.1,0c-0.3,0.1-0.5,0.2-0.8,0.2c-0.1,0-0.2,0.1-0.3,0.1
	c-0.2,0.1-0.4,0.1-0.6,0.2c-0.1,0-0.2,0-0.3,0.1c-0.2,0-0.4,0.1-0.7,0.1c-0.1,0-0.2,0-0.3,0c-0.3,0-0.6,0.1-0.9,0.1c0,0,0,0,0,0
	c0,0-0.1,0-0.1,0c-0.3,0-0.5,0-0.8,0.1c-0.1,0-0.2,0-0.3,0c-0.2,0-0.4,0-0.6,0c-0.1,0-0.2,0-0.3,0c-0.1,0-0.3,0-0.4,0
	c-0.1,0-0.2,0-0.3,0c-0.1,0-0.2,0-0.3,0c-0.3,0-0.6,0-0.9,0c0,0-0.1,0-0.1,0c0,0,0,0,0,0c-0.3,0-0.6,0-0.9-0.1c-0.1,0-0.2,0-0.3,0
	c-0.3,0-0.5-0.1-0.8-0.1c-0.1,0-0.1,0-0.2,0c0,0-0.1,0-0.1,0c-0.3,0-0.6-0.1-1-0.2c0,0-0.1,0-0.1,0c-0.3-0.1-0.5-0.1-0.8-0.2
	c-0.1,0-0.2,0-0.3-0.1c-0.2-0.1-0.5-0.1-0.7-0.2c-0.1,0-0.2,0-0.3-0.1c-0.3-0.1-0.6-0.2-0.9-0.2c0,0,0,0,0,0c-0.5-0.1-1-0.3-1.5-0.5
	c0,0,0,0,0,0c-0.5-0.2-1-0.3-1.5-0.5c0,0,0,0,0,0c-0.3-0.1-0.7-0.2-1-0.4c-0.1,0-0.1-0.1-0.2-0.1c-0.4-0.2-0.8-0.3-1.1-0.5
	c-0.1,0-0.1,0-0.2-0.1c-0.3-0.1-0.7-0.3-1-0.5c-0.3-0.1-0.6-0.3-0.9-0.4c-0.1,0-0.2-0.1-0.2-0.1c-0.2-0.1-0.3-0.2-0.5-0.2
	c-0.1,0-0.2-0.1-0.3-0.1c0,0,0,0,0,0c0,0,0,0,0,0c-0.1-0.1-0.3-0.1-0.4-0.2c-0.1,0-0.2-0.1-0.3-0.1c0,0,0,0,0,0
	c-0.1-0.1-0.3-0.2-0.4-0.2c-0.1,0-0.2-0.1-0.2-0.1c-0.2-0.1-0.3-0.2-0.5-0.2c-0.1,0-0.1-0.1-0.2-0.1c-0.2-0.1-0.4-0.2-0.6-0.4
	c0,0,0,0,0,0c-0.2-0.1-0.4-0.2-0.6-0.3c-0.1,0-0.1-0.1-0.2-0.1c-0.1-0.1-0.3-0.2-0.4-0.2c0,0-0.1,0-0.1,0c0,0-0.1-0.1-0.1-0.1
	c-0.1-0.1-0.2-0.1-0.3-0.2c-0.1,0-0.1-0.1-0.2-0.1c-0.1-0.1-0.2-0.1-0.3-0.2c-0.1,0-0.1-0.1-0.2-0.1c-0.1-0.1-0.2-0.1-0.3-0.2
	c-0.1,0-0.1-0.1-0.2-0.1c-0.1-0.1-0.2-0.1-0.3-0.2c-0.1,0-0.1-0.1-0.2-0.1c-0.1-0.1-0.2-0.1-0.3-0.2c0,0-0.1-0.1-0.1-0.1
	c-0.1-0.1-0.2-0.1-0.3-0.2c0,0,0,0-0.1,0c-0.1-0.1-0.2-0.2-0.4-0.2c0,0-0.1,0-0.1-0.1c-0.1-0.1-0.1-0.1-0.2-0.2c0,0-0.1-0.1-0.1-0.1
	c-0.1,0-0.1-0.1-0.2-0.1c0,0-0.1-0.1-0.1-0.1c0,0-0.1-0.1-0.1-0.1c0,0-0.1,0-0.1-0.1c0,0-0.1-0.1-0.1-0.1c0,0-0.1,0-0.1-0.1
	c0,0-0.1-0.1-0.1-0.1c0,0,0,0-0.1-0.1c0,0-0.1,0-0.1-0.1c0,0,0,0,0,0c0,0,0,0-0.1,0c0,0,0,0,0,0c0,0,0,0,0,0c0,0,0,0,0,0
	c0,0,0,0,0,0c0,0,0,0,0,0c-1.5,7.5-2.2,14.4-0.3,17.6c0,0,0,0,0,0c0.7,0.7,1.5,1.4,2.5,2c0.1,0.1,0.2,0.1,0.2,0.1c0,0,0,0,0,0
	c0,0,0,0,0,0c0.1,0.1,0.3,0.2,0.4,0.2c8.5,5,22.2,6.8,29.7,4.2c0,0,0,0,0,0c0,0,0,0,0,0c0,0,0,0,0,0
	C174.2,106.2,178.6,97.6,180.9,86.3C180.9,86.3,180.9,86.3,180.9,86.3z"/>
<path class="st4" d="M146.7,62.5L146.7,62.5C146.7,62.5,146.7,62.5,146.7,62.5L146.7,62.5c1.6-4.9,2.8-8.1,2.8-8.1c0,0,0,0,0,0
	c-5.5,2.8-17.7,11.8-17.7,15.1c-0.1,0.3-0.2,0.7-0.2,1c-0.3,1-0.3,3.4,2.3,7.1c3.4,4.7,0.7,15.6,7.2,22.1
	c-1.9-3.2-1.3-10.1,0.3-17.6c0,0,0,0,0,0C142.8,75.2,145,67.9,146.7,62.5L146.7,62.5z"/>
<path class="st2" d="M115,81.3c0.1,0,0.1,0,0.2,0C115.1,81.3,115,81.3,115,81.3C115,81.3,115,81.3,115,81.3z"/>
<path class="st2" d="M149.1,82.7c-0.1,0-0.1,0-0.2-0.1c-0.3-0.1-0.6-0.2-0.8-0.3c-0.1,0-0.1,0-0.2-0.1c-0.2-0.1-0.4-0.1-0.7-0.2
	c-0.1,0-0.2-0.1-0.3-0.1c0.9,0.3,1.9,0.7,2.7,1C149.5,82.9,149.3,82.8,149.1,82.7z"/>
<path class="st2" d="M111.4,81.9C111.4,81.9,111.4,81.9,111.4,81.9C111.4,81.9,111.4,81.9,111.4,81.9L111.4,81.9z"/>
<path class="st3" d="M141,103.1c1.2-5.2,1.9-11.4,0.8-17.1c-5.3-0.4-17.3-0.6-23,6.2c-0.3,2.9-0.5,5.9-0.6,8.6
	C119.9,101.4,131.8,105.9,141,103.1z"/>
<path class="st4" d="M139.3,109.3c0.6-1.7,1.2-3.9,1.7-6.3c-9.2,2.8-21.2-1.7-22.8-2.3c-0.1,1.2-0.1,2.4-0.1,3.6
	c-0.1,2.8,0,5.2,0,6.5c0,0,0,0,0,0c0,0,0,0,0,0c0.1,0,0.2,0.1,0.3,0.1c0.2,0.1,0.4,0.1,0.6,0.2c0.1,0,0.2,0.1,0.3,0.1
	c0.3,0.1,0.7,0.2,1,0.4c0.4,0.1,0.8,0.3,1.2,0.4c0.1,0,0.1,0,0.2,0.1c0.4,0.1,0.9,0.3,1.4,0.4c0.1,0,0.2,0,0.3,0.1
	c0.4,0.1,0.8,0.2,1.2,0.3c0,0,0,0,0,0c0.6,0.1,1.2,0.3,1.8,0.4c0,0,0,0,0,0c0.6,0.1,1.2,0.2,1.8,0.3c0,0,0,0,0,0
	c0.4,0.1,0.7,0.1,1.1,0.2c0.1,0,0.2,0,0.3,0c0.3,0,0.5,0.1,0.8,0.1c0.1,0,0.2,0,0.4,0c0.3,0,0.6,0.1,1,0.1c0.1,0,0.1,0,0.2,0
	c0.4,0,0.8,0,1.1,0.1c0,0,0.1,0,0.1,0c0.1,0,0.1,0,0.2,0c0.3,0,0.6,0,0.9,0c0.1,0,0.2,0,0.4,0c0.3,0,0.7,0,1,0c0,0,0,0,0,0
	c0,0,0.1,0,0.1,0c0.4,0,0.7,0,1.1-0.1c0.1,0,0.2,0,0.3,0c0.1,0,0.2,0,0.3,0l0-0.1C137.6,113.9,138.4,112.1,139.3,109.3z"/>
<path class="st4" d="M141.8,86c-0.3-1.4-0.6-2.7-1.1-4c-0.2-0.5-0.4-0.9-0.6-1.4c-0.1,0-0.2,0-0.3,0c-0.1,0-0.2,0-0.3,0
	c-0.3,0-0.6-0.1-1-0.1c0,0,0,0-0.1,0c0,0,0,0,0,0c0,0-0.1,0-0.1,0c-0.6-0.1-1.2-0.1-1.8-0.1c0,0-0.1,0-0.1,0c-0.6,0-1.2-0.1-1.8-0.1
	c0,0-0.1,0-0.1,0c0,0-0.1,0-0.1,0c-0.4,0-0.9,0-1.3,0c0,0,0,0-0.1,0c0,0,0,0-0.1,0c-0.7,0-1.4,0-2.1,0c-0.1,0-0.1,0-0.2,0
	c-0.7,0-1.4,0-2.1,0c0,0-0.1,0-0.1,0c-0.7,0-1.3,0-2,0.1c0,0-0.1,0-0.1,0c-0.6,0-1.2,0.1-1.8,0.1c-0.1,0-0.1,0-0.2,0c0,0,0,0,0,0
	c-0.1,0-0.1,0-0.2,0c-0.3,0-0.5,0-0.8,0.1c-0.1,0-0.2,0-0.3,0c-0.3,0-0.6,0-1,0.1c-0.3,0-0.6,0-0.9,0.1c0,0,0,0,0,0c0,0,0,0,0,0
	c-0.7,1.8-1.3,4.1-1.7,6.6c-0.3,1.6-0.5,3.2-0.7,4.9C124.6,85.4,136.5,85.5,141.8,86z"/>
<path class="st5" d="M152.8,84.8c-0.2-0.1-0.3-0.2-0.5-0.3c-0.1,0-0.1-0.1-0.2-0.1c-0.2-0.1-0.4-0.3-0.6-0.4c0,0-0.1,0-0.1-0.1
	c-0.2-0.1-0.5-0.3-0.7-0.4c-0.1,0-0.1-0.1-0.2-0.1c-0.2-0.1-0.4-0.2-0.6-0.3c-0.1,0-0.2-0.1-0.3-0.1c0,0,0,0-0.1,0
	c-0.9-0.3-1.8-0.7-2.7-1c0,0,0,0,0,0c-0.2-0.1-0.4-0.1-0.7-0.2c-0.1,0-0.2,0-0.2-0.1c-0.3-0.1-0.6-0.2-0.9-0.2c-0.1,0-0.1,0-0.2,0
	c-0.3-0.1-0.5-0.1-0.8-0.2c-0.1,0-0.2,0-0.3-0.1c-0.1,0-0.1,0-0.2,0c-0.2,0-0.3-0.1-0.5-0.1c-0.1,0-0.2,0-0.3-0.1
	c-0.3-0.1-0.7-0.1-1-0.2c0,0-0.1,0-0.1,0c-0.3,0-0.6-0.1-0.9-0.1c-0.1,0-0.2,0-0.3,0c-0.1,0-0.3,0-0.4,0c0.2,0.4,0.4,0.9,0.6,1.4
	c0.5,1.3,0.9,2.6,1.1,4c1.1,5.7,0.4,11.9-0.8,17.1c-0.5,2.4-1.2,4.5-1.7,6.3c-0.9,2.8-1.7,4.6-1.7,4.6l0,0.1c0.2,0,0.3,0,0.5,0
	c0.1,0,0.3,0,0.4,0c0.3,0,0.5-0.1,0.8-0.1c0.1,0,0.2,0,0.4-0.1c0.3-0.1,0.6-0.1,0.9-0.2c0.1,0,0.1,0,0.2,0c0,0,0,0,0,0
	c0.4-0.1,0.7-0.2,1.1-0.3c0.1,0,0.2-0.1,0.3-0.1c0.3-0.1,0.5-0.1,0.8-0.2c0.1,0,0.2-0.1,0.4-0.1c0.2-0.1,0.5-0.2,0.7-0.3
	c0.1,0,0.2-0.1,0.3-0.1c0.3-0.1,0.6-0.3,0.9-0.4c0,0,0.1,0,0.1,0c0.3-0.2,0.7-0.3,1-0.5c0.1-0.1,0.2-0.1,0.3-0.2
	c0.2-0.1,0.5-0.3,0.7-0.4c0.1-0.1,0.2-0.1,0.3-0.2c0.2-0.1,0.5-0.3,0.7-0.4c0.1-0.1,0.2-0.1,0.3-0.2c0.3-0.2,0.6-0.4,0.9-0.7
	c0,0,0,0,0.1,0c0.3-0.2,0.6-0.5,0.9-0.8c0.1-0.1,0.2-0.2,0.3-0.3c0.2-0.2,0.4-0.4,0.6-0.6c0.1-0.1,0.2-0.2,0.3-0.3
	c0.2-0.2,0.4-0.4,0.6-0.6c0.1-0.1,0.2-0.2,0.3-0.3c0.3-0.3,0.8-0.7,1-1c0.8-6.4,0.9-13.3-0.2-20.1c-0.2-0.2-0.4-0.3-0.6-0.5
	C153,84.9,152.9,84.9,152.8,84.8z"/>
<g>
	<g>
		<path class="st4" d="M167.6,83.3c0.1,2.1,0.1,4.1,0.1,6.1c0.3-0.7,0.6-1.5,0.9-2.3c0.4-1.1,0.8-2.2,1.2-3.4
			c0.1-0.2,0.1-0.4,0.2-0.7C169.2,83.2,168.4,83.3,167.6,83.3C167.6,83.3,167.6,83.3,167.6,83.3z"/>
		<g>
			<path class="st4" d="M151.1,79c0.2,0.1,0.6,0.3,1.1,0.6c-0.3-0.9-0.5-1.7-0.9-2.6C151.3,77.7,151.2,78.3,151.1,79z"/>
		</g>
		<g>
			<path class="st4" d="M148.8,73.8c-0.1,0.2-0.1,0.5-0.2,0.7c0.4-0.4,0.8-0.7,1.2-1c-0.2-0.5-0.4-0.9-0.7-1.4
				C149,72.7,148.9,73.2,148.8,73.8z"/>
		</g>
		<g>
			<path class="st4" d="M152.2,72c-0.7,0.4-1.4,0.8-2,1.2c-0.1,0.1-0.2,0.2-0.4,0.3c0.6,1.1,1.1,2.3,1.5,3.5c0.2-1.5,0.5-3,0.7-4.5
				C152.1,72.3,152.2,72.1,152.2,72z"/>
		</g>
		<g>
			<path class="st4" d="M150.2,68c-1.9-0.9-3.7-1.7-5.5-2.4c1.8,2,3.3,4.2,4.5,6.5c0.2-1.1,0.5-2.2,0.8-3.2
				C150,68.6,150.1,68.3,150.2,68z"/>
		</g>
		<g>
			<path class="st4" d="M167.6,83.3c0.1,2.1,0.1,4.1,0.1,6.1c0.3-0.7,0.6-1.5,0.9-2.3c0.4-1.1,0.8-2.2,1.2-3.4
				c0.1-0.2,0.1-0.4,0.2-0.7C169.2,83.2,168.4,83.3,167.6,83.3C167.6,83.3,167.6,83.3,167.6,83.3z"/>
			<path class="st4" d="M167.5,89.8c-0.4,0.8-0.7,1.5-1,2.2c-0.7,1.4-1.1,2.2-1.1,2.2l0,0.1c0.2,0,0.3,0,0.5,0c0.1,0,0.3,0,0.4,0
				c0.3,0,0.5,0,0.8,0c0.1,0,0.2,0,0.3,0c0.1-1.5,0.3-3.1,0.3-4.8C167.6,89.5,167.6,89.7,167.5,89.8z"/>
			<g>
				<path class="st4" d="M167.6,82.7C167.6,82.7,167.6,82.7,167.6,82.7c0,0.3,0,0.5,0,0.7c0.8,0,1.6-0.1,2.4-0.2
					c1.3-4,2.3-8.8,2.2-13.4c-4.8-0.6-11.4-0.9-17,1C161.9,74.5,167.4,79,167.6,82.7z"/>
			</g>
			<g>
				<path class="st4" d="M172.2,69.7c0-0.9,0-1.8-0.1-2.7c-0.1-0.9-0.2-1.8-0.4-2.7c-0.1,0-0.1,0-0.2,0c-0.1,0-0.2-0.1-0.3-0.1
					c-0.1,0-0.2,0-0.3-0.1c-0.1,0-0.2,0-0.3-0.1c-0.3-0.1-0.5-0.1-0.8-0.2c0,0,0,0,0,0c0,0,0,0,0,0c0,0-0.1,0-0.1,0
					c-0.5-0.1-1-0.2-1.5-0.3c0,0-0.1,0-0.1,0c-0.5-0.1-1-0.2-1.5-0.2c0,0-0.1,0-0.1,0c0,0-0.1,0-0.1,0c-0.4-0.1-0.7-0.1-1.1-0.2
					c0,0,0,0,0,0c0,0,0,0-0.1,0c-0.6-0.1-1.2-0.1-1.8-0.2c0,0-0.1,0-0.1,0c-0.6-0.1-1.2-0.1-1.8-0.2c0,0-0.1,0-0.1,0
					c-0.6,0-1.1-0.1-1.7-0.1c0,0-0.1,0-0.1,0c-0.5,0-1-0.1-1.5-0.1c0,0-0.1,0-0.1,0c0,0,0,0,0,0c-0.1,0-0.1,0-0.2,0
					c-0.2,0-0.4,0-0.7,0c-0.1,0-0.2,0-0.2,0c-0.3,0-0.6,0-0.8,0c-0.3,0-0.5,0-0.7,0c0,0,0,0,0,0c-0.1,0-0.2,0-0.2,0
					c-0.2,0-0.4,0-0.6,0c-0.1,0-0.1,0-0.2,0c-0.2,0-0.5,0-0.7,0c0,0,0,0,0,0c0,0,0,0,0,0c-0.2,0-0.4,0-0.6,0c-0.1,0-0.1,0-0.2,0
					c-0.1,0-0.2,0-0.2,0c-0.3,0.6-0.5,1.2-0.7,1.8c-0.5,1.2-0.9,2.5-1.3,3.9c1.7,0.8,3.4,1.7,5.1,2.7
					C160.8,68.8,167.4,69,172.2,69.7z"/>
			</g>
			<g>
				<path class="st4" d="M180.9,86.3c1.1-5.3,1.8-11.1,1.3-16.9c-0.1-0.2-0.3-0.3-0.5-0.5c0,0-0.1-0.1-0.1-0.1
					c-0.1-0.1-0.2-0.2-0.4-0.3c-0.1,0-0.1-0.1-0.2-0.1c-0.2-0.1-0.3-0.2-0.5-0.4c0,0-0.1,0-0.1-0.1c-0.2-0.1-0.4-0.3-0.6-0.4
					c-0.1,0-0.1-0.1-0.2-0.1c-0.1-0.1-0.3-0.2-0.5-0.3c-0.1,0-0.1-0.1-0.2-0.1c0,0,0,0-0.1,0c-0.2-0.1-0.3-0.2-0.5-0.3
					c0,0-0.1-0.1-0.1-0.1c-0.2-0.1-0.4-0.2-0.7-0.3c-0.1,0-0.1-0.1-0.2-0.1c-0.2-0.1-0.4-0.2-0.5-0.2c-0.1,0-0.2-0.1-0.2-0.1
					c0,0,0,0,0,0c-0.2-0.1-0.4-0.2-0.6-0.2c-0.1,0-0.1-0.1-0.2-0.1c-0.3-0.1-0.5-0.2-0.8-0.3c-0.1,0-0.1,0-0.2-0.1
					c-0.2-0.1-0.4-0.1-0.6-0.2c-0.1,0-0.2-0.1-0.3-0.1c-0.1,0-0.1,0-0.2-0.1c-0.1,0-0.3-0.1-0.4-0.1c-0.1,0-0.2,0-0.2-0.1
					c-0.3-0.1-0.5-0.2-0.8-0.2c0,0-0.1,0-0.1,0c-0.2-0.1-0.5-0.1-0.7-0.2c0,0,0,0-0.1,0c0.2,0.9,0.3,1.8,0.4,2.7
					c0.1,0.9,0.1,1.8,0.1,2.7c0,4.7-1,9.4-2.2,13.4c-0.1,0.2-0.1,0.4-0.2,0.7c-0.4,1.2-0.8,2.4-1.2,3.4c-0.3,0.8-0.6,1.6-0.9,2.3
					c0,1.7-0.2,3.2-0.3,4.8c0,0,0.1,0,0.1,0c0.3,0,0.6,0,0.9-0.1c0.1,0,0.1,0,0.2,0c0,0,0,0,0,0c0.4,0,0.7-0.1,1.1-0.1
					c0.1,0,0.2,0,0.3-0.1c0.3,0,0.5-0.1,0.8-0.1c0.1,0,0.3-0.1,0.4-0.1c0.3-0.1,0.5-0.1,0.8-0.2c0.1,0,0.2-0.1,0.4-0.1
					c0.3-0.1,0.6-0.2,1-0.3c0,0,0.1,0,0.1,0c0.4-0.1,0.7-0.2,1.1-0.4c0.1,0,0.2-0.1,0.3-0.1c0.3-0.1,0.5-0.2,0.8-0.3
					c0.1-0.1,0.2-0.1,0.4-0.2c0,0,0,0,0,0c0,0,0,0,0,0c0.2-0.1,0.5-0.2,0.7-0.4c0.1-0.1,0.2-0.1,0.3-0.2c0.3-0.2,0.6-0.4,1-0.6
					c0,0,0,0,0.1,0c0.3-0.2,0.7-0.4,1-0.7c0.1-0.1,0.2-0.1,0.3-0.2c0.2-0.2,0.5-0.3,0.7-0.5c0.1-0.1,0.2-0.2,0.3-0.2
					C180.4,88.4,180.7,87.4,180.9,86.3C180.9,86.3,180.9,86.3,180.9,86.3z"/>
			</g>
			<g>
				<path class="st4" d="M194.2,69c0-0.2,0-0.3,0-0.5c0,0,0,0,0-0.1c-0.5-5.9-10.1-13.3-18.3-17.5c1.2,1.6,2.2,3.5,3.1,5.4
					c0.8,1.9,1.5,4,2,6c0.2,0.8,0.4,1.6,0.5,2.4c0.3,1.6,0.5,3.2,0.7,4.8c0.5,5.8-0.2,11.6-1.3,16.9c0,0,0,0,0,0
					c-0.2,1-0.4,2.1-0.7,3c-0.3,1.3-0.6,2.5-1,3.7c-2.3,7.8-5,13.2-5.1,13.2c1.3-0.4,2.4-1,3.2-1.7c0,0,0,0,0,0
					c0.5-0.2,0.9-0.5,1.2-0.9c0.1-0.1,0.1-0.2,0.2-0.2c2.7-1,5.6-2.3,8.1-4.4C192.1,94.5,195.8,86.4,194.2,69z"/>
			</g>
			<g>
				<path class="st4" d="M152.6,62.3c0.2,0,0.4,0,0.6,0c0,0,0,0,0,0c0,0,0,0,0,0c0.2,0,0.5,0,0.7,0c0.1,0,0.1,0,0.2,0
					c0.2,0,0.4,0,0.6,0c0.1,0,0.2,0,0.2,0c0,0,0,0,0,0c0.2,0,0.5,0,0.7,0c0.3,0,0.5,0,0.8,0c0.1,0,0.2,0,0.2,0c0.2,0,0.4,0,0.7,0
					c0.1,0,0.1,0,0.2,0c0,0,0,0,0,0c0,0,0.1,0,0.1,0c0.5,0,1,0.1,1.5,0.1c0,0,0.1,0,0.1,0c0.6,0,1.1,0.1,1.7,0.1c0,0,0.1,0,0.1,0
					c0.6,0,1.2,0.1,1.8,0.2c0,0,0.1,0,0.1,0c0.6,0.1,1.2,0.1,1.8,0.2c0,0,0,0,0.1,0c0,0,0,0,0,0c0.4,0,0.7,0.1,1.1,0.2
					c0,0,0.1,0,0.1,0c0,0,0.1,0,0.1,0c0.5,0.1,1,0.2,1.5,0.2c0,0,0.1,0,0.1,0c0.5,0.1,1,0.2,1.5,0.3c0,0,0.1,0,0.1,0c0,0,0,0,0,0
					c0,0,0,0,0,0c0.3,0.1,0.5,0.1,0.8,0.2c0.1,0,0.2,0,0.3,0.1c0.1,0,0.2,0,0.3,0.1c0.1,0,0.2,0.1,0.3,0.1c0.1,0,0.1,0,0.2,0
					c0,0,0,0,0.1,0c0.3,0.1,0.5,0.1,0.7,0.2c0,0,0.1,0,0.1,0c0.3,0.1,0.6,0.2,0.8,0.2c0.1,0,0.2,0,0.2,0.1c0.1,0,0.3,0.1,0.4,0.1
					c0.1,0,0.1,0,0.2,0.1c0.1,0,0.2,0.1,0.3,0.1c0.2,0.1,0.4,0.1,0.6,0.2c0.1,0,0.1,0,0.2,0.1c0.3,0.1,0.5,0.2,0.8,0.3
					c0.1,0,0.1,0.1,0.2,0.1c0.2,0.1,0.4,0.2,0.6,0.2c0,0,0,0,0,0c0.1,0,0.2,0.1,0.2,0.1c0.2,0.1,0.4,0.2,0.5,0.2
					c0.1,0,0.1,0.1,0.2,0.1c0.2,0.1,0.5,0.2,0.7,0.3c0,0,0.1,0.1,0.1,0.1c0.2,0.1,0.3,0.2,0.5,0.3c0,0,0,0,0.1,0
					c0.1,0,0.1,0.1,0.2,0.1c0.2,0.1,0.3,0.2,0.5,0.3c0.1,0,0.1,0.1,0.2,0.1c0.2,0.1,0.4,0.3,0.6,0.4c0,0,0.1,0,0.1,0.1
					c0.2,0.1,0.3,0.2,0.5,0.4c0.1,0,0.1,0.1,0.2,0.1c0.1,0.1,0.2,0.2,0.4,0.3c0,0,0.1,0.1,0.1,0.1c0.2,0.2,0.3,0.3,0.5,0.5
					c-0.1-1.5-0.3-3.1-0.7-4.8c-0.2-0.8-0.3-1.6-0.5-2.4c-0.5-2-1.2-4.1-2-6c-0.8-1.9-1.9-3.8-3.1-5.4c-4.4-3.1-6-3.4-8.4-3.9
					c-2-0.4-3.3,0.3-3.7,0.4c-3.5-1.4-5.2,1.9-4.9,2.7c-3.4,1.1-2.9,2.4-5.6,3.1c-0.3,0-0.5,0.1-0.8,0.2c-0.3,0.1-0.7,0.1-1,0.2
					c-0.5,0.1-1.2,0.4-2.1,0.8c0,0,0,0,0,0c0,0,0,0,0,0c0,0-1.2,3.3-2.8,8.1c0,0,0,0,0,0c0,0,0,0,0,0c0,0,0,0,0,0c0,0,0.1,0,0.1,0
					c0,0,0,0,0,0c0.1,0,0.1,0,0.2,0c0,0,0,0,0.1,0c0.1,0,0.2,0,0.3,0c0,0,0.1,0,0.1,0c0.1,0,0.2,0,0.4,0c0,0,0.1,0,0.1,0
					c0.1,0,0.3,0,0.4,0c0,0,0,0,0,0c0.2,0,0.3,0,0.5,0c0,0,0.1,0,0.1,0c0.2,0,0.4,0,0.6,0c0,0,0,0,0,0c0,0,0.1,0,0.1,0
					c0.1,0,0.3,0,0.4,0c0.1,0,0.1,0,0.2,0c0.2,0,0.3,0,0.5,0c0,0,0.1,0,0.1,0c0.2,0,0.4,0,0.6,0c0.1,0,0.1,0,0.2,0
					c0.1,0,0.2,0,0.2,0c0.1,0,0.2,0,0.2,0C152.5,62.3,152.6,62.3,152.6,62.3z"/>
			</g>
			<g>
				<path class="st4" d="M166.3,94.2c-0.1,0-0.3,0-0.4,0c-0.2,0-0.3,0-0.5,0l0-0.1c0,0,0.4-0.8,1.1-2.2c0.3-0.6,0.6-1.3,1-2.2
					c0-0.1,0.1-0.2,0.1-0.3c0.1-1.9,0-4-0.1-6.1c0,0,0,0,0,0c-0.9,0-1.8,0-2.6-0.1c-5-0.4-9.8-2.4-12.3-3.5
					c-0.2-0.1-0.3-0.1-0.4-0.2c0.6,1.9,1.1,3.9,1.4,5.9c1.1,6.8,1,13.7,0.2,20.1c0,0,0,0,0,0c-1.5,13.5-5.7,24.3-5.9,24.3
					c1.4-0.7,2.7-1.5,3.6-2.4c0,0,0,0,0,0c0.5-0.3,1-0.8,1.3-1.3c0.1-0.1,0.1-0.2,0.2-0.3c5.5-5.8,12.6-15.3,14.2-31.7
					c-0.1,0-0.2,0-0.3,0C166.8,94.2,166.6,94.2,166.3,94.2z"/>
			</g>
			<g>
				<path class="st4" d="M165,83.3c0.9,0.1,1.8,0.1,2.6,0.1c0-0.2,0-0.4,0-0.6c0,0,0,0,0-0.1c-0.2-3.7-5.7-8.2-12.3-12
					c-1.1,0.4-2.1,0.8-3,1.3c0,0.2-0.1,0.3-0.1,0.5c-0.3,1.5-0.5,3-0.7,4.5c0.3,0.8,0.6,1.7,0.9,2.6c0.1,0.1,0.3,0.1,0.4,0.2
					C155.1,80.9,160,82.8,165,83.3z"/>
			</g>
		</g>
		<g>
			<path class="st4" d="M152.2,72c1-0.5,2-0.9,3-1.3c-1.6-0.9-3.4-1.8-5.1-2.7c-0.1,0.3-0.2,0.6-0.2,0.9c-0.3,1-0.5,2.1-0.8,3.2
				c0.2,0.4,0.5,0.9,0.7,1.4c0.1-0.1,0.2-0.2,0.4-0.3C150.8,72.7,151.5,72.3,152.2,72z"/>
		</g>
		<g>
			<path class="st4" d="M167.5,89.8c-0.4,0.8-0.7,1.5-1,2.2c-0.7,1.4-1.1,2.2-1.1,2.2l0,0.1c0.2,0,0.3,0,0.5,0c0.1,0,0.3,0,0.4,0
				c0.3,0,0.5,0,0.8,0c0.1,0,0.2,0,0.3,0c0.1-1.5,0.3-3.1,0.3-4.8C167.6,89.5,167.6,89.7,167.5,89.8z"/>
		</g>
	</g>
</g>
<g>
	<path class="st2" d="M167.2,82.4c0.1,2.5,0.1,4.9,0.1,7.2c0.4-0.8,0.7-1.7,1.1-2.7c0.5-1.3,1-2.6,1.4-4.1c0.1-0.3,0.2-0.5,0.2-0.8
		C169.1,82.3,168.2,82.4,167.2,82.4C167.2,82.4,167.2,82.4,167.2,82.4z"/>
	<path class="st3" d="M147.7,77.3c0.2,0.1,0.7,0.4,1.3,0.7c-0.3-1-0.6-2-1-3C147.9,75.7,147.8,76.5,147.7,77.3z"/>
	<path class="st4" d="M145,71.1c-0.1,0.3-0.1,0.6-0.2,0.9c0.5-0.4,0.9-0.8,1.4-1.2c-0.3-0.5-0.5-1.1-0.8-1.6
		C145.3,69.8,145.1,70.4,145,71.1z"/>
	<path class="st3" d="M149,69c-0.8,0.4-1.6,0.9-2.4,1.5c-0.1,0.1-0.3,0.2-0.4,0.3c0.7,1.4,1.3,2.7,1.8,4.1c0.3-1.8,0.5-3.6,0.9-5.3
		C149,69.4,149,69.2,149,69z"/>
	<path class="st3" d="M146.6,64.3c-2.2-1.1-4.4-2-6.5-2.8c2.1,2.4,3.8,5,5.3,7.7c0.3-1.3,0.6-2.6,0.9-3.8
		C146.4,65,146.5,64.7,146.6,64.3z"/>
	<g>
		<path class="st2" d="M167.2,82.4c0.1,2.5,0.1,4.9,0.1,7.2c0.4-0.8,0.7-1.7,1.1-2.7c0.5-1.3,1-2.6,1.4-4.1c0.1-0.3,0.2-0.5,0.2-0.8
			C169.1,82.3,168.2,82.4,167.2,82.4C167.2,82.4,167.2,82.4,167.2,82.4z"/>
		<path class="st2" d="M167.2,90c-0.4,1-0.8,1.8-1.1,2.5c-0.8,1.6-1.3,2.6-1.3,2.6l0,0.2c0.2,0,0.4,0,0.6,0c0.2,0,0.3,0,0.5,0
			c0.3,0,0.6,0,0.9,0c0.1,0,0.2,0,0.3,0c0.2-1.8,0.3-3.7,0.4-5.6C167.3,89.8,167.2,89.9,167.2,90z"/>
		<path class="st3" d="M167.2,81.6C167.2,81.7,167.2,81.7,167.2,81.6c0,0.3,0,0.6,0,0.8c1,0,1.9-0.1,2.8-0.3
			c1.5-4.8,2.7-10.4,2.7-15.9c-5.7-0.7-13.5-1-20.1,1.2C160.4,71.9,167,77.3,167.2,81.6z"/>
		<path class="st4" d="M172.7,66.3c0-1.1-0.1-2.2-0.2-3.2c-0.1-1.1-0.3-2.1-0.5-3.2c-0.1,0-0.2,0-0.2-0.1c-0.1,0-0.3-0.1-0.4-0.1
			c-0.1,0-0.2-0.1-0.3-0.1c-0.1,0-0.2,0-0.3-0.1c-0.3-0.1-0.6-0.1-1-0.2c0,0,0,0-0.1,0c0,0,0,0,0,0c0,0-0.1,0-0.1,0
			c-0.6-0.1-1.2-0.2-1.8-0.3c0,0-0.1,0-0.1,0c-0.6-0.1-1.2-0.2-1.8-0.3c0,0-0.1,0-0.1,0c0,0-0.1,0-0.1,0c-0.4-0.1-0.9-0.1-1.3-0.2
			c0,0,0,0-0.1,0c0,0,0,0-0.1,0c-0.7-0.1-1.4-0.2-2.1-0.2c-0.1,0-0.1,0-0.2,0c-0.7-0.1-1.4-0.1-2.1-0.2c0,0-0.1,0-0.1,0
			c-0.7-0.1-1.3-0.1-2-0.1c0,0-0.1,0-0.1,0c-0.6,0-1.2-0.1-1.8-0.1c-0.1,0-0.1,0-0.2,0c0,0,0,0,0,0c-0.1,0-0.1,0-0.2,0
			c-0.3,0-0.5,0-0.8,0c-0.1,0-0.2,0-0.3,0c-0.3,0-0.7,0-1,0c-0.3,0-0.6,0-0.9,0c0,0,0,0,0,0c-0.1,0-0.2,0-0.3,0c-0.2,0-0.4,0-0.7,0
			c-0.1,0-0.2,0-0.3,0c-0.3,0-0.6,0-0.8,0c0,0,0,0,0,0c0,0,0,0,0,0c-0.3,0-0.5,0-0.8,0c-0.1,0-0.2,0-0.2,0c-0.1,0-0.2,0-0.3,0
			c-0.3,0.7-0.6,1.4-0.9,2.1c-0.5,1.4-1,3-1.5,4.6c2,1,4.1,2,6,3.1C159.2,65.2,167,65.5,172.7,66.3z"/>
		<path class="st5" d="M182.9,86c1.3-6.2,2.1-13.1,1.5-20c-0.2-0.2-0.4-0.4-0.5-0.6c-0.1-0.1-0.1-0.1-0.2-0.2
			c-0.1-0.1-0.3-0.3-0.4-0.4c-0.1-0.1-0.1-0.1-0.2-0.2c-0.2-0.1-0.4-0.3-0.6-0.4c0,0-0.1,0-0.1-0.1c-0.2-0.2-0.5-0.3-0.7-0.5
			c-0.1,0-0.1-0.1-0.2-0.1c-0.2-0.1-0.4-0.2-0.5-0.3c-0.1,0-0.2-0.1-0.2-0.1c0,0,0,0-0.1,0c-0.2-0.1-0.4-0.2-0.5-0.3
			c-0.1,0-0.1-0.1-0.2-0.1c-0.3-0.1-0.5-0.3-0.8-0.4c-0.1,0-0.1-0.1-0.2-0.1c-0.2-0.1-0.4-0.2-0.6-0.3c-0.1,0-0.2-0.1-0.3-0.1
			c0,0,0,0,0,0c-0.2-0.1-0.4-0.2-0.7-0.3c-0.1,0-0.2-0.1-0.2-0.1c-0.3-0.1-0.6-0.2-0.9-0.3c-0.1,0-0.1,0-0.2-0.1
			c-0.2-0.1-0.5-0.2-0.7-0.3c-0.1,0-0.2-0.1-0.3-0.1c-0.1,0-0.1,0-0.2-0.1c-0.2-0.1-0.3-0.1-0.5-0.2c-0.1,0-0.2-0.1-0.3-0.1
			c-0.3-0.1-0.6-0.2-1-0.3c0,0-0.1,0-0.1,0c-0.3-0.1-0.6-0.2-0.9-0.2c0,0,0,0-0.1,0c0.2,1,0.4,2.1,0.5,3.2c0.1,1.1,0.2,2.2,0.2,3.2
			c0,5.5-1.2,11.1-2.7,15.9c-0.1,0.3-0.2,0.5-0.2,0.8c-0.5,1.4-1,2.8-1.4,4.1c-0.4,1-0.7,1.9-1.1,2.7c-0.1,2-0.2,3.8-0.4,5.6
			c0,0,0.1,0,0.1,0c0.4,0,0.7-0.1,1.1-0.1c0.1,0,0.1,0,0.2,0c0,0,0,0,0,0c0.4,0,0.9-0.1,1.3-0.2c0.1,0,0.2,0,0.4-0.1
			c0.3-0.1,0.6-0.1,0.9-0.2c0.1,0,0.3-0.1,0.4-0.1c0.3-0.1,0.6-0.1,0.9-0.2c0.1,0,0.3-0.1,0.4-0.1c0.4-0.1,0.8-0.2,1.1-0.3
			c0,0,0.1,0,0.1,0c0.4-0.1,0.8-0.3,1.3-0.4c0.1,0,0.2-0.1,0.4-0.2c0.3-0.1,0.6-0.2,0.9-0.4c0.1-0.1,0.3-0.1,0.4-0.2c0,0,0,0,0,0
			c0,0,0,0,0,0c0.3-0.1,0.6-0.3,0.9-0.4c0.1-0.1,0.3-0.1,0.4-0.2c0.4-0.2,0.8-0.4,1.1-0.7c0,0,0.1,0,0.1,0c0.4-0.2,0.8-0.5,1.2-0.8
			c0.1-0.1,0.2-0.2,0.4-0.3c0.3-0.2,0.6-0.4,0.8-0.6c0.1-0.1,0.2-0.2,0.3-0.3C182.4,88.4,182.7,87.2,182.9,86
			C182.9,86,182.9,86,182.9,86z"/>
		<path class="st3" d="M198.6,65.4c0-0.2,0-0.4,0-0.6c0,0,0,0,0-0.1C198,57.8,186.8,49,177,44c1.4,1.9,2.6,4.1,3.6,6.4
			c1,2.3,1.8,4.7,2.4,7.1c0.2,1,0.5,1.9,0.6,2.9c0.4,1.9,0.6,3.8,0.8,5.6c0.6,6.8-0.2,13.8-1.5,20c0,0,0,0,0,0
			c-0.2,1.2-0.5,2.4-0.8,3.6c-0.4,1.5-0.8,2.9-1.2,4.3c-2.7,9.2-6,15.6-6.1,15.6c1.5-0.5,2.8-1.2,3.8-2c0,0,0,0,0,0
			c0.5-0.3,1-0.6,1.4-1.1c0.1-0.1,0.2-0.2,0.2-0.3c3.2-1.2,6.6-2.7,9.5-5.2C196.2,95.7,200.6,86,198.6,65.4z"/>
		<path class="st7" d="M149.5,57.6c0.2,0,0.5,0,0.8,0c0,0,0,0,0,0c0,0,0,0,0,0c0.3,0,0.6,0,0.8,0c0.1,0,0.2,0,0.3,0
			c0.2,0,0.4,0,0.7,0c0.1,0,0.2,0,0.3,0c0,0,0,0,0,0c0.3,0,0.6,0,0.9,0c0.3,0,0.6,0,1,0c0.1,0,0.2,0,0.3,0c0.3,0,0.5,0,0.8,0
			c0.1,0,0.1,0,0.2,0c0,0,0,0,0,0c0.1,0,0.1,0,0.2,0c0.6,0,1.2,0.1,1.8,0.1c0,0,0.1,0,0.1,0c0.7,0,1.3,0.1,2,0.1c0,0,0.1,0,0.1,0
			c0.7,0.1,1.4,0.1,2.1,0.2c0.1,0,0.1,0,0.2,0c0.7,0.1,1.4,0.1,2.1,0.2c0,0,0,0,0.1,0c0,0,0,0,0.1,0c0.4,0.1,0.9,0.1,1.3,0.2
			c0,0,0.1,0,0.1,0c0,0,0.1,0,0.1,0c0.6,0.1,1.2,0.2,1.8,0.3c0,0,0.1,0,0.1,0c0.6,0.1,1.2,0.2,1.8,0.3c0,0,0.1,0,0.1,0c0,0,0,0,0,0
			c0,0,0,0,0.1,0c0.3,0.1,0.6,0.1,1,0.2c0.1,0,0.2,0,0.3,0.1c0.1,0,0.2,0,0.3,0.1c0.1,0,0.3,0.1,0.4,0.1c0.1,0,0.2,0,0.2,0.1
			c0,0,0,0,0.1,0c0.3,0.1,0.6,0.1,0.9,0.2c0,0,0.1,0,0.1,0c0.3,0.1,0.7,0.2,1,0.3c0.1,0,0.2,0.1,0.3,0.1c0.2,0,0.3,0.1,0.5,0.2
			c0.1,0,0.1,0,0.2,0.1c0.1,0,0.2,0.1,0.3,0.1c0.3,0.1,0.5,0.2,0.7,0.3c0.1,0,0.1,0,0.2,0.1c0.3,0.1,0.6,0.2,0.9,0.3
			c0.1,0,0.2,0.1,0.2,0.1c0.2,0.1,0.4,0.2,0.7,0.3c0,0,0,0,0,0c0.1,0,0.2,0.1,0.3,0.1c0.2,0.1,0.4,0.2,0.6,0.3
			c0.1,0,0.1,0.1,0.2,0.1c0.3,0.1,0.5,0.3,0.8,0.4c0.1,0,0.1,0.1,0.2,0.1c0.2,0.1,0.4,0.2,0.5,0.3c0,0,0,0,0.1,0
			c0.1,0,0.2,0.1,0.2,0.1c0.2,0.1,0.4,0.2,0.5,0.3c0.1,0,0.1,0.1,0.2,0.1c0.2,0.2,0.5,0.3,0.7,0.5c0,0,0.1,0,0.1,0.1
			c0.2,0.1,0.4,0.3,0.6,0.4c0.1,0.1,0.1,0.1,0.2,0.2c0.1,0.1,0.3,0.3,0.4,0.4c0.1,0.1,0.1,0.1,0.2,0.2c0.2,0.2,0.4,0.4,0.5,0.6
			c-0.1-1.8-0.4-3.7-0.8-5.6c-0.2-1-0.4-1.9-0.6-2.9c-0.6-2.4-1.4-4.8-2.4-7.1c-1-2.3-2.2-4.5-3.6-6.4c-5.2-3.6-7.1-4-9.9-4.6
			c-2.4-0.5-3.9,0.3-4.3,0.5c-4.2-1.6-6.1,2.3-5.7,3.2c-4.1,1.3-3.4,2.8-6.7,3.6c-0.3,0.1-0.6,0.1-0.9,0.2c-0.4,0.1-0.8,0.2-1.1,0.2
			c-0.5,0.1-1.4,0.4-2.5,1c0,0,0,0,0,0c0,0,0,0,0,0c0,0-1.4,3.9-3.3,9.6c0,0,0,0,0,0c0,0,0,0,0,0c0,0,0,0,0,0c0,0,0.1,0,0.2,0
			c0,0,0,0,0.1,0c0.1,0,0.1,0,0.2,0c0,0,0,0,0.1,0c0.1,0,0.2,0,0.3,0c0,0,0.1,0,0.1,0c0.1,0,0.3,0,0.4,0c0,0,0.1,0,0.1,0
			c0.2,0,0.3,0,0.5,0c0,0,0,0,0.1,0c0.2,0,0.4,0,0.6,0c0,0,0.1,0,0.1,0c0.2,0,0.5,0,0.7,0c0,0,0,0,0,0c0,0,0.1,0,0.1,0
			c0.2,0,0.3,0,0.5,0c0.1,0,0.1,0,0.2,0c0.2,0,0.4,0,0.6,0c0,0,0.1,0,0.1,0c0.2,0,0.5,0,0.7,0c0.1,0,0.1,0,0.2,0c0.1,0,0.2,0,0.3,0
			c0.1,0,0.2,0,0.3,0C149.4,57.6,149.5,57.6,149.5,57.6z"/>
		<path class="st3" d="M165.7,95.3c-0.2,0-0.3,0-0.5,0c-0.2,0-0.4,0-0.6,0l0-0.2c0,0,0.5-0.9,1.3-2.6c0.3-0.7,0.7-1.6,1.1-2.5
			c0.1-0.1,0.1-0.3,0.2-0.4c0.1-2.3,0-4.7-0.1-7.2c0,0,0,0,0,0c-1,0-2.1,0-3.1-0.1c-5.9-0.5-11.6-2.8-14.5-4.2
			c-0.2-0.1-0.3-0.2-0.5-0.2c0.7,2.3,1.2,4.6,1.7,7c1.4,8,1.2,16.2,0.3,23.8c0,0,0,0,0,0c-1.7,16-6.8,28.7-6.9,28.8
			c1.7-0.8,3.2-1.8,4.3-2.9c0,0,0,0,0,0c0.6-0.4,1.1-0.9,1.6-1.5c0.1-0.1,0.2-0.2,0.2-0.4c6.5-6.8,14.9-18,16.8-37.4
			c-0.1,0-0.2,0-0.3,0C166.3,95.3,166,95.3,165.7,95.3z"/>
		<path class="st3" d="M164.1,82.3c1,0.1,2.1,0.1,3.1,0.1c0-0.2,0-0.5,0-0.7c0,0,0-0.1,0-0.1c-0.2-4.3-6.8-9.7-14.6-14.2
			c-1.2,0.4-2.5,0.9-3.6,1.5c0,0.2-0.1,0.4-0.1,0.6c-0.3,1.8-0.6,3.6-0.9,5.3c0.4,1,0.7,2,1,3c0.2,0.1,0.3,0.2,0.5,0.2
			C152.5,79.5,158.2,81.8,164.1,82.3z"/>
	</g>
	<path class="st3" d="M149,69c1.1-0.6,2.4-1.1,3.6-1.5c-1.9-1.1-4-2.2-6-3.1c-0.1,0.3-0.2,0.7-0.3,1c-0.3,1.2-0.6,2.5-0.9,3.8
		c0.3,0.5,0.6,1.1,0.8,1.6c0.1-0.1,0.3-0.2,0.4-0.3C147.4,69.9,148.2,69.4,149,69z"/>
	<path class="st3" d="M167.2,90c-0.4,1-0.8,1.8-1.1,2.5c-0.8,1.6-1.3,2.6-1.3,2.6l0,0.2c0.2,0,0.4,0,0.6,0c0.2,0,0.3,0,0.5,0
		c0.3,0,0.6,0,0.9,0c0.1,0,0.2,0,0.3,0c0.2-1.8,0.3-3.7,0.4-5.6C167.3,89.8,167.2,89.9,167.2,90z"/>
</g>
<path class="st6" d="M147.9,129.9C147.9,129.9,147.9,129.9,147.9,129.9C148,129.9,147.9,129.9,147.9,129.9
	C147.9,129.9,147.9,129.9,147.9,129.9z"/>
<path class="st7" d="M111.4,81.9C111.4,81.9,111.4,81.9,111.4,81.9C111.4,81.9,111.4,81.9,111.4,81.9
	C111.4,81.9,111.4,81.9,111.4,81.9c0.1,0,0.2,0,0.2,0c0,0,0,0,0.1,0c0.1,0,0.1,0,0.2,0c0,0,0,0,0.1,0c0.1,0,0.2,0,0.3-0.1
	c0,0,0.1,0,0.1,0c0.1,0,0.3,0,0.4-0.1c0,0,0.1,0,0.1,0c0.2,0,0.3,0,0.5-0.1c0,0,0,0,0.1,0c0.2,0,0.4-0.1,0.6-0.1c0,0,0.1,0,0.1,0
	c0.2,0,0.5-0.1,0.7-0.1c0,0,0,0,0,0c0,0,0.1,0,0.1,0c0.2,0,0.3,0,0.5-0.1c0.1,0,0.1,0,0.2,0c0.2,0,0.4,0,0.6-0.1c0,0,0.1,0,0.1,0
	c0.2,0,0.5-0.1,0.7-0.1c0.1,0,0.1,0,0.2,0c0.2,0,0.4,0,0.6-0.1c0.1,0,0.2,0,0.2,0c0.2,0,0.5-0.1,0.7-0.1c0,0,0,0,0,0c0,0,0,0,0,0
	c0.3,0,0.6-0.1,0.8-0.1c0.1,0,0.2,0,0.3,0c0.2,0,0.4,0,0.6-0.1c0.1,0,0.2,0,0.3,0c0,0,0,0,0,0c0.3,0,0.6-0.1,0.9-0.1
	c0.3,0,0.6-0.1,1-0.1c0.1,0,0.2,0,0.3,0c0.3,0,0.5,0,0.8-0.1c0.1,0,0.1,0,0.2,0c0,0,0,0,0,0c0.1,0,0.1,0,0.2,0
	c0.6,0,1.2-0.1,1.8-0.1c0,0,0.1,0,0.1,0c0.7,0,1.3-0.1,2-0.1c0,0,0.1,0,0.1,0c0.7,0,1.4,0,2.1,0c0.1,0,0.1,0,0.2,0
	c0.7,0,1.4,0,2.1,0c0,0,0,0,0.1,0c0,0,0,0,0.1,0c0.4,0,0.9,0,1.3,0c0,0,0.1,0,0.1,0c0,0,0.1,0,0.1,0c0.6,0,1.2,0,1.8,0.1
	c0,0,0.1,0,0.1,0c0.6,0,1.2,0.1,1.8,0.1c0,0,0.1,0,0.1,0c0,0,0,0,0,0c0,0,0,0,0.1,0c0.3,0,0.7,0.1,1,0.1c0.1,0,0.2,0,0.3,0
	c0.1,0,0.2,0,0.3,0c0.1,0,0.3,0,0.4,0c0.1,0,0.2,0,0.3,0c0.3,0,0.6,0.1,0.9,0.1c0,0,0.1,0,0.1,0c0.3,0.1,0.7,0.1,1,0.2
	c0.1,0,0.2,0,0.3,0.1c0.2,0,0.3,0.1,0.5,0.1c0.1,0,0.1,0,0.2,0c0.1,0,0.2,0,0.3,0.1c0.3,0.1,0.5,0.1,0.8,0.2c0.1,0,0.1,0,0.2,0
	c0.3,0.1,0.6,0.2,0.9,0.2c0.1,0,0.2,0,0.2,0.1c0.2,0.1,0.5,0.1,0.7,0.2c0,0,0,0,0,0c0.1,0,0.2,0.1,0.3,0.1c0.2,0.1,0.4,0.1,0.7,0.2
	c0.1,0,0.1,0,0.2,0.1c0.3,0.1,0.6,0.2,0.8,0.3c0.1,0,0.1,0,0.2,0.1c0.2,0.1,0.4,0.2,0.6,0.2c0,0,0,0,0.1,0c0.1,0,0.2,0.1,0.3,0.1
	c0.2,0.1,0.4,0.2,0.6,0.3c0.1,0,0.1,0.1,0.2,0.1c0.2,0.1,0.5,0.3,0.7,0.4c0,0,0.1,0,0.1,0.1c0.2,0.1,0.4,0.2,0.6,0.4
	c0.1,0,0.1,0.1,0.2,0.1c0.2,0.1,0.3,0.2,0.5,0.3c0.1,0,0.1,0.1,0.2,0.1c0.2,0.2,0.4,0.3,0.6,0.5c-1.2-7.2-3.9-14.1-8.9-19.8
	c-5.2-2-9.7-3-11.6-2.3c-0.4,0.2-0.8,0.3-1.2,0.5c-0.8,0.2-1.6,0.6-2.3,1c-3.9,1.8-8.2,3.9-11.3,5.1c-0.3,0.1-0.6,0.2-0.9,0.3
	c-0.4,0.1-0.8,0.3-1.1,0.3c-0.5,0.1-1.4,0.6-2.4,1.3c0,0,0,0,0,0c0,0,0,0,0,0C113.8,71.9,112.7,76,111.4,81.9z"/>
<path class="st5" d="M107.2,105.5C107.2,105.6,107.3,105.6,107.2,105.5C107.3,105.6,107.3,105.6,107.2,105.5
	c0.1,0.1,0.1,0.1,0.1,0.1c0,0,0.1,0,0.1,0c0,0,0,0,0.1,0c0,0,0.1,0,0.1,0.1c0,0,0.1,0,0.1,0.1c0,0,0.1,0.1,0.1,0.1
	c0,0,0.1,0,0.1,0.1c0,0,0.1,0.1,0.2,0.1c0,0,0.1,0,0.1,0.1c0.1,0,0.1,0.1,0.2,0.1c0,0,0.1,0.1,0.1,0.1c0.1,0,0.1,0.1,0.2,0.1
	c0,0,0.1,0.1,0.2,0.1c0.1,0,0.2,0.1,0.3,0.2c0,0,0.1,0,0.1,0.1c0.1,0.1,0.3,0.2,0.4,0.2c0,0,0.1,0,0.1,0c0.1,0.1,0.3,0.1,0.4,0.2
	c0.1,0,0.1,0.1,0.2,0.1c0.1,0.1,0.2,0.1,0.3,0.2c0.1,0,0.1,0.1,0.2,0.1c0.1,0.1,0.2,0.1,0.3,0.2c0.1,0,0.2,0.1,0.2,0.1
	c0.1,0.1,0.2,0.1,0.3,0.2c0.1,0,0.2,0.1,0.3,0.1c0.1,0.1,0.2,0.1,0.4,0.2c0.1,0,0.2,0.1,0.3,0.1c0.1,0.1,0.3,0.1,0.4,0.2
	c0.1,0,0.1,0.1,0.2,0.1c0,0,0.1,0,0.1,0c0.2,0.1,0.3,0.1,0.5,0.2c0.1,0,0.2,0.1,0.2,0.1c0.2,0.1,0.5,0.2,0.7,0.3c0,0,0,0,0,0
	c0.3,0.1,0.5,0.2,0.8,0.3c0.1,0,0.2,0.1,0.2,0.1c0.2,0.1,0.4,0.2,0.6,0.2c0.1,0,0.2,0.1,0.3,0.1c0.2,0.1,0.3,0.1,0.5,0.2
	c0,0,0,0,0,0c0.1,0,0.2,0.1,0.3,0.1c0.2,0.1,0.3,0.1,0.5,0.2c0-1.3,0-3.7,0-6.5c0-1.1,0.1-2.3,0.1-3.6c0.1-2.7,0.3-5.7,0.6-8.6
	c0.2-1.7,0.4-3.3,0.7-4.9c0.4-2.5,1-4.8,1.7-6.6c0,0,0,0,0,0c-0.1,0-0.2,0-0.3,0c-0.2,0-0.4,0-0.6,0.1c-0.1,0-0.2,0-0.3,0
	c-0.3,0-0.6,0.1-0.8,0.1c0,0,0,0,0,0c0,0,0,0,0,0c-0.3,0-0.5,0.1-0.7,0.1c-0.1,0-0.2,0-0.2,0c-0.2,0-0.4,0-0.6,0.1
	c-0.1,0-0.1,0-0.2,0c-0.2,0-0.5,0.1-0.7,0.1c0,0-0.1,0-0.1,0c-0.2,0-0.4,0.1-0.6,0.1c-0.1,0-0.1,0-0.2,0c-0.2,0-0.3,0-0.5,0.1
	c-0.1,0-0.1,0-0.2,0c-0.2,0-0.5,0.1-0.7,0.1c0,0-0.1,0-0.1,0c-0.2,0-0.4,0.1-0.6,0.1c0,0,0,0-0.1,0c-0.2,0-0.4,0.1-0.5,0.1
	c0,0-0.1,0-0.1,0c-0.2,0-0.3,0-0.4,0.1c0,0-0.1,0-0.1,0c-0.1,0-0.2,0-0.3,0.1c0,0,0,0-0.1,0c-0.1,0-0.2,0-0.2,0c0,0,0,0-0.1,0
	c-0.1,0-0.1,0-0.1,0c0,0,0,0,0,0c0,0,0,0,0,0c0,0,0,0,0,0c0,0,0,0,0,0l0,0l0,0C109.9,88.4,108.1,97.3,107.2,105.5
	C107.2,105.5,107.2,105.5,107.2,105.5C107.2,105.6,107.2,105.6,107.2,105.5C107.2,105.6,107.2,105.5,107.2,105.5
	C107.2,105.5,107.2,105.5,107.2,105.5z"/>
<path class="st7" d="M153.8,105.5c-0.3,0.3-0.7,0.7-1,1c-0.1,0.1-0.2,0.2-0.3,0.3c-0.2,0.2-0.4,0.4-0.6,0.6
	c-0.1,0.1-0.2,0.2-0.3,0.3c-0.2,0.2-0.4,0.4-0.6,0.6c-0.1,0.1-0.2,0.2-0.3,0.3c-0.3,0.3-0.6,0.5-0.9,0.8c0,0,0,0-0.1,0
	c-0.3,0.2-0.6,0.4-0.9,0.7c-0.1,0.1-0.2,0.1-0.3,0.2c-0.2,0.2-0.5,0.3-0.7,0.4c-0.1,0.1-0.2,0.1-0.3,0.2c-0.2,0.1-0.5,0.3-0.7,0.4
	c-0.1,0.1-0.2,0.1-0.3,0.2c-0.3,0.2-0.7,0.3-1,0.5c0,0-0.1,0-0.1,0c-0.3,0.1-0.6,0.3-0.9,0.4c-0.1,0-0.2,0.1-0.3,0.1
	c-0.2,0.1-0.5,0.2-0.7,0.3c-0.1,0-0.2,0.1-0.4,0.1c-0.3,0.1-0.5,0.2-0.8,0.2c-0.1,0-0.2,0.1-0.3,0.1c-0.4,0.1-0.7,0.2-1.1,0.3
	c0,0,0,0,0,0c-0.1,0-0.1,0-0.2,0c-0.3,0.1-0.6,0.1-0.9,0.2c-0.1,0-0.2,0-0.4,0.1c-0.3,0-0.5,0.1-0.8,0.1c-0.1,0-0.3,0-0.4,0
	c-0.2,0-0.3,0-0.5,0c-0.1,0-0.2,0-0.3,0c-0.1,0-0.2,0-0.3,0c-0.4,0-0.7,0-1.1,0.1c0,0-0.1,0-0.1,0c0,0,0,0,0,0c-0.3,0-0.7,0-1,0
	c-0.1,0-0.2,0-0.4,0c-0.3,0-0.6,0-0.9,0c-0.1,0-0.1,0-0.2,0c0,0-0.1,0-0.1,0c-0.4,0-0.8,0-1.1-0.1c-0.1,0-0.1,0-0.2,0
	c-0.3,0-0.6-0.1-1-0.1c-0.1,0-0.2,0-0.4,0c-0.3,0-0.5-0.1-0.8-0.1c-0.1,0-0.2,0-0.3,0c-0.4-0.1-0.7-0.1-1.1-0.2c0,0,0,0,0,0
	c-0.6-0.1-1.2-0.2-1.8-0.3c0,0,0,0,0,0c-0.6-0.1-1.2-0.3-1.8-0.4c0,0,0,0,0,0c-0.4-0.1-0.8-0.2-1.2-0.3c-0.1,0-0.2,0-0.3-0.1
	c-0.5-0.1-0.9-0.3-1.4-0.4c-0.1,0-0.1,0-0.2-0.1c-0.4-0.1-0.8-0.3-1.2-0.4c-0.4-0.1-0.7-0.2-1-0.4c-0.1,0-0.2-0.1-0.3-0.1
	c-0.2-0.1-0.4-0.1-0.6-0.2c-0.1,0-0.2-0.1-0.3-0.1c0,0,0,0,0,0c0,0,0,0,0,0c-0.2-0.1-0.3-0.1-0.5-0.2c-0.1,0-0.2-0.1-0.3-0.1
	c0,0,0,0,0,0c-0.2-0.1-0.4-0.1-0.5-0.2c-0.1,0-0.2-0.1-0.3-0.1c-0.2-0.1-0.4-0.2-0.6-0.2c-0.1,0-0.2-0.1-0.2-0.1
	c-0.3-0.1-0.5-0.2-0.8-0.3c0,0,0,0,0,0c-0.2-0.1-0.5-0.2-0.7-0.3c-0.1,0-0.2-0.1-0.2-0.1c-0.2-0.1-0.3-0.1-0.5-0.2c0,0-0.1,0-0.1,0
	c-0.1,0-0.1-0.1-0.2-0.1c-0.1-0.1-0.3-0.1-0.4-0.2c-0.1,0-0.2-0.1-0.3-0.1c-0.1-0.1-0.2-0.1-0.4-0.2c-0.1,0-0.2-0.1-0.3-0.1
	c-0.1-0.1-0.2-0.1-0.3-0.2c-0.1,0-0.2-0.1-0.2-0.1c-0.1-0.1-0.2-0.1-0.3-0.2c-0.1,0-0.1-0.1-0.2-0.1c-0.1-0.1-0.2-0.1-0.3-0.2
	c-0.1,0-0.1-0.1-0.2-0.1c-0.1-0.1-0.3-0.1-0.4-0.2c0,0-0.1,0-0.1,0c-0.2-0.1-0.3-0.2-0.4-0.2c0,0-0.1,0-0.1-0.1
	c-0.1-0.1-0.2-0.1-0.3-0.2c-0.1,0-0.1-0.1-0.2-0.1c-0.1,0-0.1-0.1-0.2-0.1c-0.1,0-0.1-0.1-0.1-0.1c-0.1,0-0.1-0.1-0.2-0.1
	c0,0-0.1,0-0.1-0.1c-0.1,0-0.1-0.1-0.2-0.1c0,0-0.1,0-0.1-0.1c0,0-0.1-0.1-0.1-0.1c0,0-0.1,0-0.1-0.1c0,0-0.1,0-0.1-0.1
	c0,0,0,0-0.1,0c0,0-0.1,0-0.1,0c0,0,0,0,0,0c0,0,0,0-0.1,0c0,0,0,0,0,0c0,0,0,0,0,0c0,0,0,0,0,0c-1,9.1-1,17.3,1.5,20.8c0,0,0,0,0,0
	c0.9,0.8,1.9,1.4,3.1,2c0.1,0,0.2,0.1,0.3,0.1c0,0,0,0,0,0c0,0,0,0,0,0c0.2,0.1,0.3,0.2,0.5,0.2c10.5,4.8,26.7,5.2,35.3,1.1
	c0,0,0,0,0,0c0,0,0,0,0,0c0,0,0,0,0,0C148.1,129.8,152.4,119.1,153.8,105.5C153.8,105.5,153.8,105.5,153.8,105.5z"/>
<path class="st3" d="M111.4,81.9L111.4,81.9C111.4,81.9,111.4,81.9,111.4,81.9L111.4,81.9c1.3-5.9,2.4-10,2.4-10c0,0,0,0,0,0
	c-6.2,4-19.6,16.2-19.1,20.1c-0.1,0.4-0.1,0.8-0.1,1.2c-0.2,1.3,0,4,3.5,8c4.4,5.1,2.5,18.2,10.7,25.1c-2.5-3.5-2.5-11.8-1.5-20.8
	c0,0,0,0,0,0C108.1,97.3,109.9,88.4,111.4,81.9L111.4,81.9z"/>
<path class="st2" d="M99.4,110.5C99.4,110.5,99.4,110.6,99.4,110.5C99.4,110.6,99.4,110.5,99.4,110.5
	C99.4,110.5,99.4,110.5,99.4,110.5z"/>
<path class="st2" d="M114.2,130.9c0,0,0-0.1,0-0.1c0-0.2-0.1-0.4-0.2-0.6c0-0.1,0-0.1,0-0.2c0-0.2-0.1-0.3-0.2-0.5
	c0-0.1,0-0.1-0.1-0.2c0.2,0.7,0.4,1.4,0.6,2C114.3,131.2,114.3,131,114.2,130.9z"/>
<polygon class="st2" points="97.3,108.6 97.3,108.6 97.3,108.6 "/>
<path class="st3" d="M95.9,134.8c4.2-1.5,9.1-3.7,12.6-6.7c-2.1-3.3-7.6-10.3-15.2-10.7c-2.2,1-4.4,2.2-6.5,3.3
	C87.2,121.8,89.6,130.6,95.9,134.8z"/>
<path class="st4" d="M90.6,136.4c1.5-0.4,3.3-1,5.3-1.6c-6.3-4.2-8.7-13-9-14.2c-0.9,0.5-1.8,1-2.6,1.4c-2.1,1.2-3.7,2.2-4.7,2.7
	c0,0,0,0,0,0c0,0,0,0,0,0c0,0.1,0,0.2,0.1,0.2c0,0.1,0.1,0.3,0.1,0.4c0,0.1,0,0.1,0.1,0.2c0.1,0.3,0.1,0.5,0.2,0.8
	c0.1,0.3,0.2,0.6,0.3,0.9c0,0,0,0.1,0,0.1c0.1,0.3,0.2,0.6,0.3,1c0,0.1,0,0.1,0.1,0.2c0.1,0.3,0.2,0.5,0.3,0.8c0,0,0,0,0,0
	c0.2,0.4,0.3,0.8,0.5,1.2c0,0,0,0,0,0c0.2,0.4,0.4,0.8,0.6,1.2c0,0,0,0,0,0c0.1,0.2,0.2,0.5,0.4,0.7c0,0.1,0.1,0.1,0.1,0.2
	c0.1,0.2,0.2,0.3,0.3,0.5c0,0.1,0.1,0.1,0.1,0.2c0.1,0.2,0.3,0.4,0.4,0.6c0,0,0,0.1,0.1,0.1c0.2,0.2,0.3,0.5,0.5,0.7c0,0,0,0,0,0.1
	c0,0,0.1,0.1,0.1,0.1c0.1,0.2,0.3,0.4,0.4,0.5c0.1,0.1,0.1,0.1,0.2,0.2c0.2,0.2,0.3,0.4,0.5,0.6c0,0,0,0,0,0c0,0,0,0,0.1,0.1
	c0.2,0.2,0.4,0.4,0.6,0.6c0.1,0.1,0.1,0.1,0.2,0.2c0.1,0.1,0.1,0.1,0.2,0.2l0.1-0.1C86.6,137.4,88.2,137.1,90.6,136.4z"/>
<path class="st4" d="M108.6,128c0.9-0.7,1.6-1.5,2.3-2.3c0.2-0.3,0.5-0.6,0.7-0.9c0-0.1-0.1-0.1-0.1-0.2c0-0.1-0.1-0.1-0.1-0.2
	c-0.1-0.2-0.3-0.4-0.4-0.6c0,0,0,0,0,0c0,0,0,0,0,0c0,0,0-0.1-0.1-0.1c-0.2-0.4-0.5-0.7-0.7-1.1c0,0,0-0.1-0.1-0.1
	c-0.3-0.4-0.5-0.7-0.8-1.1c0,0,0,0,0-0.1c0,0,0-0.1-0.1-0.1c-0.2-0.3-0.4-0.5-0.6-0.8c0,0,0,0,0,0c0,0,0,0,0,0
	c-0.3-0.4-0.6-0.8-1-1.2c0,0,0-0.1-0.1-0.1c-0.3-0.4-0.7-0.8-1-1.2c0,0,0,0-0.1-0.1c-0.3-0.4-0.7-0.8-1-1.1c0,0,0-0.1-0.1-0.1
	c-0.3-0.3-0.6-0.7-0.9-1c0,0-0.1-0.1-0.1-0.1c0,0,0,0,0,0c0,0-0.1-0.1-0.1-0.1c-0.1-0.1-0.3-0.3-0.4-0.4c0-0.1-0.1-0.1-0.1-0.2
	c-0.2-0.2-0.3-0.4-0.5-0.5c-0.2-0.2-0.3-0.3-0.5-0.5c0,0,0,0,0,0c0,0,0,0,0,0c-1.6,0.3-3.5,1-5.5,1.8c-1.3,0.5-2.5,1.1-3.8,1.7
	C100.9,117.8,106.4,124.8,108.6,128z"/>
<path class="st5" d="M114.5,133.9c0-0.1,0-0.3,0-0.4c0-0.1,0-0.1,0-0.2c0-0.2,0-0.3,0-0.5c0,0,0-0.1,0-0.1c0-0.2,0-0.4-0.1-0.6
	c0-0.1,0-0.1,0-0.2c0-0.1,0-0.3-0.1-0.4c0-0.1,0-0.1,0-0.2c0,0,0,0,0-0.1c-0.2-0.6-0.3-1.3-0.6-2c0,0,0,0,0,0
	c-0.1-0.2-0.1-0.3-0.2-0.5c0-0.1,0-0.1-0.1-0.2c-0.1-0.2-0.2-0.4-0.3-0.6c0,0,0-0.1-0.1-0.1c-0.1-0.2-0.2-0.3-0.2-0.5
	c0-0.1-0.1-0.1-0.1-0.2c0,0,0-0.1-0.1-0.1c-0.1-0.1-0.1-0.2-0.2-0.3c0-0.1-0.1-0.1-0.1-0.2c-0.1-0.2-0.2-0.4-0.3-0.6c0,0,0,0,0-0.1
	c-0.1-0.2-0.2-0.4-0.3-0.6c0-0.1-0.1-0.1-0.1-0.2c-0.1-0.1-0.1-0.2-0.2-0.3c-0.2,0.3-0.5,0.6-0.7,0.9c-0.7,0.8-1.5,1.6-2.3,2.3
	c-3.6,3-8.4,5.2-12.6,6.7c-2,0.7-3.8,1.2-5.3,1.6c-2.4,0.7-4.1,1-4.1,1l-0.1,0.1c0.1,0.1,0.2,0.2,0.2,0.2c0.1,0.1,0.1,0.1,0.2,0.2
	c0.1,0.1,0.3,0.3,0.4,0.4c0.1,0.1,0.1,0.1,0.2,0.2c0.2,0.2,0.4,0.3,0.6,0.5c0,0,0.1,0.1,0.1,0.1c0,0,0,0,0,0
	c0.2,0.2,0.5,0.3,0.7,0.5c0.1,0,0.1,0.1,0.2,0.1c0.2,0.1,0.3,0.2,0.5,0.4c0.1,0.1,0.2,0.1,0.3,0.2c0.2,0.1,0.3,0.2,0.5,0.3
	c0.1,0,0.2,0.1,0.3,0.1c0.2,0.1,0.5,0.3,0.7,0.4c0,0,0.1,0,0.1,0c0.3,0.1,0.6,0.3,0.8,0.4c0.1,0,0.2,0.1,0.3,0.1
	c0.2,0.1,0.4,0.2,0.6,0.2c0.1,0,0.2,0.1,0.3,0.1c0.2,0.1,0.4,0.1,0.6,0.2c0.1,0,0.2,0.1,0.3,0.1c0.3,0.1,0.6,0.2,0.9,0.2
	c0,0,0,0,0.1,0c0.3,0.1,0.7,0.2,1,0.2c0.1,0,0.2,0,0.3,0.1c0.2,0,0.5,0.1,0.7,0.1c0.1,0,0.2,0,0.4,0.1c0.2,0,0.5,0.1,0.8,0.1
	c0.1,0,0.2,0,0.3,0c0.3,0,0.8,0.1,1.2,0.2c4.9-2.2,10-5.1,14.3-8.6c0-0.2,0.1-0.4,0.1-0.6C114.5,134,114.5,134,114.5,133.9z"/>
<path class="st3" d="M124.5,121.1c-1.8,5.3-5.5,9.8-10.1,13.5c-4.3,3.5-9.4,6.4-14.3,8.6c0,0,0,0,0,0c-10.4,4.9-20.1,6.9-20.2,6.9
	c1.2,0.5,2.3,0.9,3.4,1.1c0,0,0,0,0,0c0.5,0.2,1,0.2,1.5,0.2c0.1,0,1.7,0.3,1.8,0.3c10.3,6.3,21.7,3.4,35.7-9.9
	c0.1-0.1,0.3-0.2,0.4-0.3c0,0,0,0,0,0C126.7,139,126.4,128.5,124.5,121.1z"/>
<path class="st6" d="M79.9,150.1C79.9,150.1,79.9,150.1,79.9,150.1C79.9,150.1,79.9,150.1,79.9,150.1
	C79.9,150.1,79.9,150.1,79.9,150.1z"/>
<path class="st7" d="M97.3,108.6C97.3,108.6,97.3,108.6,97.3,108.6C97.3,108.6,97.3,108.7,97.3,108.6
	C97.3,108.7,97.3,108.7,97.3,108.6c0.1,0.1,0.1,0.1,0.1,0.1c0,0,0,0,0,0c0,0,0.1,0.1,0.1,0.1c0,0,0,0,0,0c0.1,0.1,0.1,0.1,0.2,0.2
	c0,0,0,0,0.1,0c0.1,0.1,0.2,0.1,0.3,0.2c0,0,0,0,0.1,0.1c0.1,0.1,0.2,0.2,0.3,0.3c0,0,0,0,0,0c0.1,0.1,0.2,0.2,0.4,0.3
	c0,0,0.1,0,0.1,0.1c0.1,0.1,0.3,0.2,0.4,0.4c0,0,0,0,0,0c0,0,0,0,0.1,0.1c0.1,0.1,0.2,0.2,0.3,0.2c0,0,0.1,0.1,0.1,0.1
	c0.1,0.1,0.2,0.2,0.3,0.3c0,0,0,0,0.1,0c0.1,0.1,0.3,0.3,0.4,0.4c0,0,0.1,0.1,0.1,0.1c0.1,0.1,0.2,0.2,0.3,0.3c0,0,0.1,0.1,0.1,0.1
	c0.1,0.1,0.3,0.3,0.4,0.4c0,0,0,0,0,0c0,0,0,0,0,0c0.1,0.1,0.3,0.3,0.5,0.5c0,0,0.1,0.1,0.1,0.1c0.1,0.1,0.2,0.2,0.3,0.4
	c0,0,0.1,0.1,0.1,0.2c0,0,0,0,0,0c0.2,0.2,0.3,0.3,0.5,0.5c0.2,0.2,0.3,0.3,0.5,0.5c0,0.1,0.1,0.1,0.1,0.2c0.1,0.1,0.3,0.3,0.4,0.4
	c0,0,0.1,0.1,0.1,0.1c0,0,0,0,0,0c0,0,0.1,0.1,0.1,0.1c0.3,0.3,0.6,0.7,0.9,1c0,0,0,0.1,0.1,0.1c0.3,0.4,0.7,0.7,1,1.1
	c0,0,0,0,0.1,0.1c0.3,0.4,0.7,0.8,1,1.2c0,0,0.1,0.1,0.1,0.1c0.3,0.4,0.6,0.8,1,1.2c0,0,0,0,0,0c0,0,0,0,0,0
	c0.2,0.3,0.4,0.5,0.6,0.8c0,0,0,0.1,0.1,0.1c0,0,0,0,0,0.1c0.3,0.4,0.5,0.7,0.8,1.1c0,0,0,0.1,0.1,0.1c0.3,0.4,0.5,0.7,0.7,1.1
	c0,0,0,0.1,0.1,0.1c0,0,0,0,0,0c0,0,0,0,0,0c0.1,0.2,0.3,0.4,0.4,0.6c0,0.1,0.1,0.1,0.1,0.2c0,0.1,0.1,0.1,0.1,0.2
	c0.1,0.1,0.1,0.2,0.2,0.3c0,0.1,0.1,0.1,0.1,0.2c0.1,0.2,0.2,0.4,0.3,0.6c0,0,0,0,0,0.1c0.1,0.2,0.2,0.4,0.3,0.6
	c0,0.1,0.1,0.1,0.1,0.2c0.1,0.1,0.1,0.2,0.2,0.3c0,0,0,0.1,0.1,0.1c0,0.1,0.1,0.1,0.1,0.2c0.1,0.2,0.2,0.3,0.2,0.5
	c0,0,0,0.1,0.1,0.1c0.1,0.2,0.2,0.4,0.3,0.6c0,0.1,0,0.1,0.1,0.2c0.1,0.2,0.1,0.3,0.2,0.5c0,0,0,0,0,0c0,0.1,0,0.1,0.1,0.2
	c0.1,0.2,0.1,0.3,0.2,0.5c0,0.1,0,0.1,0,0.2c0.1,0.2,0.1,0.4,0.2,0.6c0,0,0,0.1,0,0.1c0,0.1,0.1,0.3,0.1,0.4c0,0,0,0,0,0.1
	c0,0.1,0,0.1,0,0.2c0,0.1,0,0.3,0.1,0.4c0,0.1,0,0.1,0,0.2c0,0.2,0,0.4,0.1,0.6c0,0,0,0.1,0,0.1c0,0.2,0,0.3,0,0.5
	c0,0.1,0,0.1,0,0.2c0,0.1,0,0.3,0,0.4c0,0.1,0,0.1,0,0.2c0,0.2,0,0.4-0.1,0.6c4.6-3.7,8.3-8.2,10.1-13.5c-1-3.8-2.4-6.9-3.8-7.6
	c-0.3-0.2-0.6-0.3-1-0.5c-0.6-0.4-1.2-0.7-1.8-0.9c-3.1-1.5-6.6-3.1-8.9-4.4c-0.2-0.1-0.4-0.3-0.7-0.4c-0.3-0.2-0.5-0.3-0.8-0.5
	c-0.4-0.2-1.1-0.5-2-0.9c0,0,0,0,0,0c0,0,0,0,0,0C105.5,105.8,102.1,106.9,97.3,108.6z"/>
<path class="st5" d="M78.4,116.3C78.4,116.3,78.4,116.3,78.4,116.3C78.4,116.3,78.4,116.3,78.4,116.3
	C78.4,116.3,78.4,116.3,78.4,116.3c0,0.1,0,0.1,0,0.2c0,0,0,0,0,0.1c0,0,0,0.1,0,0.1c0,0,0,0,0,0.1c0,0,0,0.1,0,0.1c0,0,0,0.1,0,0.1
	c0,0,0,0.1,0,0.1c0,0,0,0.1,0,0.1c0,0,0,0.1,0,0.1c0,0,0,0.1,0,0.1c0,0.1,0,0.1,0,0.2c0,0,0,0.1,0,0.1c0,0.1,0,0.1,0,0.2
	c0,0,0,0.1,0,0.1c0,0.1,0,0.2,0,0.4c0,0,0,0,0,0.1c0,0.1,0,0.2,0,0.3c0,0,0,0.1,0,0.1c0,0.1,0,0.2,0,0.3c0,0.1,0,0.1,0,0.2
	c0,0.1,0,0.2,0,0.3c0,0.1,0,0.1,0,0.2c0,0.1,0,0.2,0,0.3c0,0.1,0,0.1,0,0.2c0,0.1,0,0.2,0,0.3c0,0.1,0,0.1,0,0.2c0,0.1,0,0.2,0,0.3
	c0,0,0,0.1,0,0.1c0,0,0,0.1,0,0.1c0,0.1,0,0.2,0.1,0.4c0,0.1,0,0.1,0,0.2c0,0.2,0.1,0.4,0.1,0.5c0,0,0,0,0,0c0,0.2,0.1,0.4,0.1,0.6
	c0,0.1,0,0.1,0,0.2c0,0.1,0.1,0.3,0.1,0.4c0,0.1,0,0.2,0.1,0.2c0,0.1,0.1,0.3,0.1,0.4c0,0,0,0,0,0c0,0.1,0,0.2,0.1,0.2
	c0,0.1,0.1,0.2,0.1,0.4c0.9-0.6,2.6-1.6,4.7-2.7c0.8-0.5,1.7-0.9,2.6-1.4c2-1.1,4.2-2.2,6.5-3.3c1.3-0.6,2.6-1.2,3.8-1.7
	c2-0.8,3.9-1.5,5.5-1.8c0,0,0,0,0,0c0-0.1-0.1-0.1-0.1-0.2c-0.1-0.1-0.2-0.2-0.3-0.4c0,0-0.1-0.1-0.1-0.1c-0.2-0.2-0.3-0.3-0.5-0.5
	c0,0,0,0,0,0c0,0,0,0,0,0c-0.1-0.1-0.3-0.3-0.4-0.4c0,0-0.1-0.1-0.1-0.1c-0.1-0.1-0.2-0.2-0.3-0.3c0,0-0.1-0.1-0.1-0.1
	c-0.1-0.1-0.3-0.3-0.4-0.4c0,0,0,0-0.1,0c-0.1-0.1-0.2-0.2-0.3-0.3c0,0-0.1-0.1-0.1-0.1c-0.1-0.1-0.2-0.2-0.3-0.2
	c0,0-0.1-0.1-0.1-0.1c-0.1-0.1-0.3-0.2-0.4-0.4c0,0-0.1,0-0.1-0.1c-0.1-0.1-0.2-0.2-0.4-0.3c0,0,0,0,0,0c-0.1-0.1-0.2-0.2-0.3-0.3
	c0,0,0,0-0.1-0.1c-0.1-0.1-0.2-0.2-0.3-0.2c0,0,0,0-0.1,0c-0.1-0.1-0.1-0.1-0.2-0.2c0,0,0,0,0,0c-0.1,0-0.1-0.1-0.1-0.1c0,0,0,0,0,0
	c0,0-0.1-0.1-0.1-0.1c0,0,0,0,0,0c0,0,0,0,0,0c0,0,0,0,0,0c0,0,0,0,0,0l0,0h0C91.9,110.6,84.7,113.3,78.4,116.3
	C78.4,116.2,78.4,116.2,78.4,116.3C78.4,116.2,78.4,116.2,78.4,116.3C78.4,116.2,78.4,116.2,78.4,116.3
	C78.4,116.2,78.4,116.2,78.4,116.3z"/>
<path class="st7" d="M100.1,143.2c-0.4,0-0.9-0.1-1.2-0.2c-0.1,0-0.2,0-0.3,0c-0.3,0-0.5-0.1-0.8-0.1c-0.1,0-0.2,0-0.4-0.1
	c-0.2,0-0.5-0.1-0.7-0.1c-0.1,0-0.2,0-0.3-0.1c-0.3-0.1-0.7-0.1-1-0.2c0,0,0,0-0.1,0c-0.3-0.1-0.6-0.2-0.9-0.2
	c-0.1,0-0.2-0.1-0.3-0.1c-0.2-0.1-0.4-0.1-0.6-0.2c-0.1,0-0.2-0.1-0.3-0.1c-0.2-0.1-0.4-0.2-0.6-0.2c-0.1,0-0.2-0.1-0.3-0.1
	c-0.3-0.1-0.6-0.3-0.8-0.4c0,0-0.1,0-0.1,0c-0.2-0.1-0.5-0.2-0.7-0.4c-0.1,0-0.2-0.1-0.3-0.1c-0.2-0.1-0.4-0.2-0.5-0.3
	c-0.1-0.1-0.2-0.1-0.3-0.2c-0.2-0.1-0.4-0.2-0.5-0.4c-0.1,0-0.1-0.1-0.2-0.1c-0.2-0.2-0.5-0.3-0.7-0.5c0,0,0,0,0,0
	c0,0-0.1-0.1-0.1-0.1c-0.2-0.2-0.4-0.3-0.6-0.5c-0.1-0.1-0.1-0.1-0.2-0.2c-0.1-0.1-0.3-0.3-0.4-0.4c-0.1-0.1-0.1-0.1-0.2-0.2
	c-0.1-0.1-0.2-0.2-0.2-0.2c-0.1-0.1-0.1-0.1-0.2-0.2c-0.1-0.1-0.1-0.1-0.2-0.2c-0.2-0.2-0.4-0.4-0.6-0.6c0,0,0,0-0.1-0.1
	c0,0,0,0,0,0c-0.2-0.2-0.3-0.4-0.5-0.6c-0.1-0.1-0.1-0.1-0.2-0.2c-0.1-0.2-0.3-0.3-0.4-0.5c0,0-0.1-0.1-0.1-0.1c0,0,0,0,0-0.1
	c-0.2-0.2-0.3-0.5-0.5-0.7c0,0,0-0.1-0.1-0.1c-0.1-0.2-0.3-0.4-0.4-0.6c0-0.1-0.1-0.1-0.1-0.2c-0.1-0.2-0.2-0.3-0.3-0.5
	c0-0.1-0.1-0.1-0.1-0.2c-0.1-0.2-0.3-0.5-0.4-0.7c0,0,0,0,0,0c-0.2-0.4-0.4-0.8-0.6-1.2c0,0,0,0,0,0c-0.2-0.4-0.4-0.8-0.5-1.2
	c0,0,0,0,0,0c-0.1-0.3-0.2-0.5-0.3-0.8c0-0.1,0-0.1-0.1-0.2c-0.1-0.3-0.2-0.6-0.3-1c0,0,0-0.1,0-0.1c-0.1-0.3-0.2-0.6-0.3-0.9
	c-0.1-0.3-0.2-0.5-0.2-0.8c0-0.1,0-0.1-0.1-0.2c0-0.1-0.1-0.3-0.1-0.4c0-0.1,0-0.2-0.1-0.2c0,0,0,0,0,0c0,0,0,0,0,0
	c0-0.1-0.1-0.2-0.1-0.4c0-0.1,0-0.2-0.1-0.2c0,0,0,0,0,0c0-0.1-0.1-0.3-0.1-0.4c0-0.1,0-0.2-0.1-0.2c0-0.1-0.1-0.3-0.1-0.4
	c0-0.1,0-0.1,0-0.2c0-0.2-0.1-0.4-0.1-0.6c0,0,0,0,0,0c0-0.2-0.1-0.4-0.1-0.5c0-0.1,0-0.1,0-0.2c0-0.1,0-0.2-0.1-0.4
	c0,0,0-0.1,0-0.1c0,0,0-0.1,0-0.1c0-0.1,0-0.2,0-0.3c0-0.1,0-0.1,0-0.2c0-0.1,0-0.2,0-0.3c0-0.1,0-0.1,0-0.2c0-0.1,0-0.2,0-0.3
	c0-0.1,0-0.1,0-0.2c0-0.1,0-0.2,0-0.3c0-0.1,0-0.1,0-0.2c0-0.1,0-0.2,0-0.3c0,0,0-0.1,0-0.1c0-0.1,0-0.2,0-0.3c0,0,0,0,0-0.1
	c0-0.1,0-0.2,0-0.4c0,0,0-0.1,0-0.1c0-0.1,0-0.2,0-0.2c0,0,0-0.1,0-0.1c0-0.1,0-0.1,0-0.2c0,0,0-0.1,0-0.1c0,0,0-0.1,0-0.1
	c0,0,0-0.1,0-0.1c0,0,0-0.1,0-0.1c0,0,0-0.1,0-0.1c0,0,0-0.1,0-0.1c0,0,0,0,0-0.1c0,0,0-0.1,0-0.1c0,0,0,0,0-0.1c0,0,0,0,0-0.1
	c0,0,0,0,0,0c0,0,0,0,0,0c0,0,0,0,0,0c0,0,0,0,0,0c0,0,0,0,0,0c-7,3.2-12.9,6.7-14.2,9.7c0,0,0,0,0,0c-0.1,0.8-0.1,1.7,0,2.7
	c0,0.1,0,0.2,0,0.2c0,0,0,0,0,0c0,0,0,0,0,0c0,0.1,0,0.3,0.1,0.4c1.5,8.1,8.7,17.6,15.6,20.9c0,0,0,0,0,0c0,0,0,0,0,0c0,0,0,0,0,0
	C80,150.2,89.7,148.1,100.1,143.2C100.1,143.2,100.1,143.2,100.1,143.2z"/>
<path class="st3" d="M97.3,108.9L97.3,108.9C97.3,108.9,97.3,108.9,97.3,108.9L97.3,108.9c4.9-1.7,8.3-2.8,8.3-2.8c0,0,0,0,0,0
	c-5.8-1.9-20.8-4.5-23.3-2.6c-0.3,0.1-0.6,0.3-0.9,0.4c-1,0.4-1.8,2.2-4.2,5.4c-2.9,3.9-13.4,8.1-13,16.8c1.3-2.9,7.2-6.4,14.2-9.7
	c0,0,0,0,0,0C84.7,113.5,91.9,110.8,97.3,108.9L97.3,108.9z"/>
<linearGradient id="SVGID_3_" gradientUnits="userSpaceOnUse" x1="58.5293" y1="77.5218" x2="172.8854" y2="77.5218">
	<stop  offset="2.289707e-02" style="stop-color:#BF66D6"/>
	<stop  offset="0.249" style="stop-color:#CA77DD"/>
	<stop  offset="0.6923" style="stop-color:#E8A2F0"/>
	<stop  offset="1" style="stop-color:#FFC3FF"/>
</linearGradient>
<path class="st8" d="M166.5,36.1c0,0.1-0.1,0.1-0.1,0.2c-0.5,0.2-0.9,0.6-1.3,1l0.6-0.4l-0.6,0.4c-0.1,0.1-0.1,0.1-0.2,0.2
	c-1.6,1.3-7.2,5.1-15,10.7c-24,17.4-69.1,49.6-83.3,58.7c-1,0.6-1.8,1.1-2.5,1.5c-0.9,0.5-2,1-3.2,1.5c-0.9,0.6-1.6,1.4-1.9,2.5
	c-1.6,3.4,1.6,7.1,5.2,6.7c1.1-0.1,2.1-0.6,2.9-1.3c0,0,0,0,0,0l6.3-4.1l97.3-68.5c0,0,0.1,0,0.1-0.1l0.9-0.6
	C175,41.1,171.3,34.6,166.5,36.1z"/>
<path class="st2" d="M141.9,37.2l-78.3,65.2C77,92.3,119.3,56.6,141.9,37.2z"/>
<linearGradient id="SVGID_4_" gradientUnits="userSpaceOnUse" x1="51.0879" y1="54.5726" x2="170.5519" y2="80.7389">
	<stop  offset="0" style="stop-color:#BF68A9"/>
	<stop  offset="0.1915" style="stop-color:#CA6DBA"/>
	<stop  offset="0.567" style="stop-color:#E57BE5"/>
	<stop  offset="0.7745" style="stop-color:#F683FF"/>
</linearGradient>
<path class="st9" d="M62.9,109.6c0.3-0.2,0.7-0.4,1.3-0.7c0.8-0.4,1.2-0.8,1.5-0.9c0.3-0.2,0.6-0.3,0.8-0.5l0.1-0.1
	c13.8-9.7,59-41.6,83.3-58.6l14.9-10.6c0.2-0.2,0.5-0.3,0.7-0.5c0.3-0.3,0.6-0.6,1-0.7c0-0.1,0.1-0.1,0.1-0.2c-0.1,0-0.1,0-0.2,0.1
	c0.1,0,0.1,0,0.2-0.1c1.2-1.6,0.7-0.3,1-3c0-0.3,0.2-0.6,0.1-1c-0.2-2.3,0.2-1.3-0.6-3.1c-0.9-2.2-3.5-3.7-5.9-5.3
	c-1.3-0.9-2.9-1.6-4.5-2c-4.6-1.3-16.2-2.7-24.9-0.5c-3,0.7-5.1,0.6-7.3,1.2c-10.2,3.3-14,4.9-30,14.2c-1,0.6-2.1,1.2-3,1.9
	C81.2,47,32.5,94.8,54.1,110.5c0.6,0.4,4.2,1.1,6.2,0.3c0.4-0.1,0.8-0.3,1.1-0.5c0.1-0.1,0.3-0.2,0.5-0.2c0.2-0.1,0.5-0.2,0.7-0.3
	C62.7,109.7,62.8,109.6,62.9,109.6z"/>
<linearGradient id="SVGID_5_" gradientUnits="userSpaceOnUse" x1="94.4355" y1="123.5125" x2="208.0525" y2="123.5125">
	<stop  offset="2.289707e-02" style="stop-color:#BF66D6"/>
	<stop  offset="0.249" style="stop-color:#CA77DD"/>
	<stop  offset="0.6923" style="stop-color:#E8A2F0"/>
	<stop  offset="1" style="stop-color:#FFC3FF"/>
</linearGradient>
<path class="st10" d="M207.2,89.3c-0.1,0-0.2,0-0.2,0.1c-0.3,0.4-0.9,0.6-1.4,0.9l0.6-0.4l-0.6,0.4c-0.1,0-0.2,0.1-0.2,0.1
	c-1.7,1.1-7.2,5.1-15.1,10.6c-24.4,16.9-69.7,48.8-82.9,59.2c-0.9,0.7-1.7,1.3-2.2,1.8c-0.7,0.7-1.6,1.5-2.5,2.5c-0.8,0.6-1.9,1-3,1
	c-3.8,0.4-6.2-3.9-4.6-7.1c0.5-1,1.2-1.8,2.2-2.3c0,0,0,0,0,0l5.9-4.6l96.8-69.1c0,0,0,0,0.1-0.1l0.8-0.6
	C205.2,79.8,210.1,85.3,207.2,89.3z"/>
<path class="st2" d="M194.9,95.2L116.3,160C128.8,148.8,171.8,113.8,194.9,95.2z"/>
<linearGradient id="SVGID_6_" gradientUnits="userSpaceOnUse" x1="100.4578" y1="133.8967" x2="218.7254" y2="133.8967">
	<stop  offset="0" style="stop-color:#BF68A9"/>
	<stop  offset="0.1915" style="stop-color:#CA6DBA"/>
	<stop  offset="0.567" style="stop-color:#E57BE5"/>
	<stop  offset="0.7745" style="stop-color:#F683FF"/>
</linearGradient>
<path class="st11" d="M101.5,165.3c-1.2,1.6-0.7,0.3-0.9,3c0,0.3-0.1,0.6-0.1,1c0.3,2.3-0.1,1.3,0.7,3.1c0.9,2.2,3.9,3,6.3,4.5
	c1.4,0.9,2.9,1.6,4.6,1.9c4.6,1.2,13.8,0.1,24.6-1c3.1-0.3,13.2-2.6,15.5-3.3c10.1-3.6,5.7-1.6,21.5-11.3c1-0.6,8-6.6,8.9-7.4
	c10-8.1,51.8-51.6,29.8-66.8c-0.6-0.4-4.3-1-6.2-0.2c-0.4,0.2-0.8,0.4-1.1,0.6c-0.1,0.1-0.3,0.2-0.5,0.2c-0.2,0.1-0.5,0.2-0.7,0.3
	c-0.1,0-0.2,0.1-0.3,0.1c-0.3,0.2-0.7,0.4-1.3,0.7c-0.8,0.5-1.2,0.8-1.5,1c-0.3,0.2-0.5,0.3-0.8,0.5l-0.1,0.1
	c-13.6,10-58,42.3-82,59.7l-15.1,10.9c-0.2,0.2-0.9,1.3-1.1,1.5"/>
</svg>
